<svg width="32" height="36" viewBox="0 0 32 36" fill="none" xmlns="http://www.w3.org/2000/svg">
<path d="M15.0996 35.7866C15.6209 36.0724 16.2752 36.0705 16.7965 35.7847C31.0034 27.95 32.0123 12.6429 31.9999 8.29048C31.9985 7.94066 31.8978 7.59885 31.7101 7.30689C31.5224 7.01493 31.2559 6.78551 30.9431 6.64672L16.6689 0.15542C16.4417 0.0526255 16.1961 -0.000312086 15.9479 1.38405e-06C15.6996 0.000314854 15.4542 0.0538723 15.2273 0.157241L1.05238 6.64854C0.744192 6.78741 0.481387 7.01429 0.295275 7.30218C0.109162 7.59006 0.00758615 7.9268 0.00264942 8.27227C-0.0576391 12.6028 0.791719 27.9428 15.0996 35.7866ZM10.1098 14.9238L14.1758 19.0978L21.7881 11.2831L24.2954 13.857L14.1758 24.2457L7.60255 17.4977L10.1098 14.9238Z" fill="white"/>
</svg>
