<svg width="31" height="36" viewBox="0 0 31 36" fill="none" xmlns="http://www.w3.org/2000/svg">
<path d="M15.5 0C6.94765 0 0 6.858 0 15.3C0 23.742 6.94765 30.6 15.5 30.6H16.4118V36C25.2741 31.788 31 23.4 31 15.3C31 6.858 24.0524 0 15.5 0ZM17.3235 26.1H13.6765V22.5H17.3235V26.1ZM17.3235 19.8H13.6765C13.6765 13.95 19.1471 14.4 19.1471 10.8C19.1471 8.82 17.5059 7.2 15.5 7.2C13.4941 7.2 11.8529 8.82 11.8529 10.8H8.20588C8.20588 6.822 11.47 3.6 15.5 3.6C19.53 3.6 22.7941 6.822 22.7941 10.8C22.7941 15.3 17.3235 15.75 17.3235 19.8Z" fill="white"/>
</svg>
