<svg width="15" height="15" viewBox="0 0 15 15" fill="none" xmlns="http://www.w3.org/2000/svg">
<path fill-rule="evenodd" clip-rule="evenodd" d="M10.8807 9.67385L14.7611 13.7088C14.8975 13.8507 14.9741 14.0431 14.974 14.2438C14.974 14.4444 14.8972 14.6368 14.7608 14.7786C14.6243 14.9204 14.4392 15.0001 14.2462 15C14.0533 14.9999 13.8683 14.9202 13.7319 14.7782L9.8514 10.7433C8.69138 11.6776 7.23265 12.1172 5.77196 11.9728C4.31126 11.8284 2.95834 11.1108 1.9884 9.96605C1.01847 8.82126 0.504384 7.33526 0.550734 5.81034C0.597084 4.28543 1.20039 2.83614 2.23791 1.75732C3.27543 0.678507 4.66924 0.0511922 6.13578 0.00299718C7.60233 -0.0451978 9.03145 0.489347 10.1324 1.49789C11.2334 2.50643 11.9235 3.91321 12.0624 5.43204C12.2012 6.95087 11.7784 8.46766 10.8799 9.67385H10.8807ZM6.31859 10.4996C7.46636 10.4996 8.56711 10.0255 9.3787 9.18159C10.1903 8.3377 10.6462 7.19313 10.6462 5.99968C10.6462 4.80623 10.1903 3.66166 9.3787 2.81777C8.56711 1.97387 7.46636 1.49978 6.31859 1.49978C5.17083 1.49978 4.07007 1.97387 3.25848 2.81777C2.44689 3.66166 1.99094 4.80623 1.99094 5.99968C1.99094 7.19313 2.44689 8.3377 3.25848 9.18159C4.07007 10.0255 5.17083 10.4996 6.31859 10.4996Z" fill="white"/>
</svg>
