<svg xmlns="http://www.w3.org/2000/svg" width="545.38" height="303.275" viewBox="0 0 545.38 303.275">
  <g id="OBJECTS" transform="translate(-146.243 -117.603)">
    <g id="Group_291" data-name="Group 291" transform="translate(146.243 117.603)">
      <g id="Group_166" data-name="Group 166" transform="translate(0 0)">
        <path id="Path_235" data-name="Path 235" d="M233.425,218.079c30.459-11.622,67.907-13.585,98.552-24.582,54.91-19.7,76.582-77.858,138.152-85.308,77.515-9.378,153.364,27.52,200.622,70.849,45.1,41.346,83.392,109.753,45.554,161.642-28.78,39.466-95.193,52.155-149.121,61.22C494.659,414.094,417.053,412.815,345.993,396c-58.935-13.95-113.885-38.573-145.858-79.951-19.5-25.234-19.924-63.555,8.963-85.015A100.677,100.677,0,0,1,233.425,218.079Z" transform="translate(-186.33 -106.72)" fill="#f5f5f5" opacity="0.64"/>
      </g>
      <g id="Group_290" data-name="Group 290" transform="translate(40.772 45.835)">
        <g id="Group_167" data-name="Group 167" transform="translate(16.867 213.288)">
          <ellipse id="Ellipse_12" data-name="Ellipse 12" cx="223.255" cy="12.074" rx="223.255" ry="12.074" fill="#dcdcdc"/>
        </g>
        <g id="Group_289" data-name="Group 289">
          <g id="Group_203" data-name="Group 203" transform="translate(190.295 2.015)">
            <g id="Group_171" data-name="Group 171" transform="translate(0 30.066)">
              <g id="Group_169" data-name="Group 169" transform="translate(0 3.464)">
                <g id="Group_168" data-name="Group 168">
                  <path id="Path_236" data-name="Path 236" d="M339.679,251.5a4.81,4.81,0,0,1,2.923-7.192c20.7-5.179,34.323-25.912,41.863-45.868.939-2.484,7.626,1.38,10.11,2.32a4.8,4.8,0,0,1,2.8,6.2,76.738,76.738,0,0,1-52.435,46.68A4.814,4.814,0,0,1,339.679,251.5Z" transform="translate(-338.961 -197.624)" fill="#ffb8bc"/>
                </g>
              </g>
              <g id="Group_170" data-name="Group 170" transform="translate(33.846)">
                <path id="Path_237" data-name="Path 237" d="M383.574,229.136c4.4-5.771,11.393-17.645,12.063-27.132.177-2.5-.77-5.593-3-6.985-2.838-1.771-8.4,1.28-10.9,2.815-4.3,2.641-4.674,12.18-12.079,21.953C374.676,223.2,378.611,226.862,383.574,229.136Z" transform="translate(-369.659 -194.482)" fill="#009db5"/>
              </g>
            </g>
            <g id="Group_177" data-name="Group 177" transform="translate(42.542 190.273)">
              <g id="Group_173" data-name="Group 173" transform="translate(10.455 0)">
                <g id="Group_172" data-name="Group 172" transform="translate(0)">
                  <rect id="Rectangle_1236" data-name="Rectangle 1236" width="19.525" height="8.4" transform="translate(8.383 0) rotate(86.25)" fill="#ffb8bc"/>
                </g>
              </g>
              <g id="Group_175" data-name="Group 175" transform="translate(0 17.761)">
                <g id="Group_174" data-name="Group 174">
                  <path id="Path_238" data-name="Path 238" d="M397.931,355.914c-2.984-.125-10.353.592-10.355.592s-8.656,3.713-9.9,6.495c-.783,1.756,2.044,2.706,3.573,2.479l17.72-3.327Z" transform="translate(-377.546 -355.9)" fill="#723891"/>
                </g>
              </g>
              <g id="Group_176" data-name="Group 176" transform="translate(10.03 14.355)">
                <path id="Path_239" data-name="Path 239" d="M397,356.231s-6.552,2.946-10.355.592c.085-.037,1.448-.657,1.533-.7,0,0,5.09-3.422,8.124-3.314C396.3,352.813,397,356.235,397,356.231Z" transform="translate(-386.643 -352.811)" fill="#ffb8bc"/>
              </g>
            </g>
            <g id="Group_183" data-name="Group 183" transform="translate(98.831 182.282)">
              <g id="Group_179" data-name="Group 179" transform="translate(0 0)">
                <g id="Group_178" data-name="Group 178">
                  <rect id="Rectangle_1237" data-name="Rectangle 1237" width="19.525" height="8.401" transform="matrix(0.469, 0.883, -0.883, 0.469, 7.422, 0)" fill="#ffb8bc"/>
                </g>
              </g>
              <g id="Group_181" data-name="Group 181" transform="translate(0.517 15.602)">
                <g id="Group_180" data-name="Group 180">
                  <path id="Path_240" data-name="Path 240" d="M444.636,346.694c-2.775,1.11-9.2,4.784-9.2,4.785s-6.373,6.934-6.363,9.979c.005,1.922,2.973,1.63,4.275.8l14.8-10.294Z" transform="translate(-429.07 -346.694)" fill="#723891"/>
                </g>
              </g>
              <g id="Group_182" data-name="Group 182" transform="translate(6.88 12.772)">
                <path id="Path_241" data-name="Path 241" d="M444.044,346.957s-4.77,5.374-9.2,4.785c.063-.069,1.051-1.192,1.114-1.264,0,0,3.24-5.206,6.053-6.352Z" transform="translate(-434.841 -344.127)" fill="#ffb8bc"/>
              </g>
            </g>
            <g id="Group_185" data-name="Group 185" transform="translate(63.962 80.725)">
              <g id="Group_184" data-name="Group 184">
                <path id="Path_242" data-name="Path 242" d="M434.57,356.975c-1.268-2.354-41.377-58.885-37.306-116.544h23.724c-3.709,52.524,25.532,109.882,25.819,110.413Z" transform="translate(-396.974 -240.431)" fill="#723891"/>
              </g>
            </g>
            <g id="Group_187" data-name="Group 187" transform="translate(42.652 80.289)">
              <g id="Group_186" data-name="Group 186">
                <path id="Path_243" data-name="Path 243" d="M385.475,362.452a859.143,859.143,0,0,1-7.79-120.531l22.946-1.887c-.675,62.736-.872,120.992-.826,121.531Z" transform="translate(-377.646 -240.035)" fill="#723891"/>
              </g>
            </g>
            <g id="Group_189" data-name="Group 189" transform="translate(40.892 27.899)">
              <g id="Group_188" data-name="Group 188">
                <path id="Path_244" data-name="Path 244" d="M424.679,259.329H376.05V208.606c0-11.453,10.269-15.829,20.1-16.057,11.417-.266,28.528.817,28.528,16.057Z" transform="translate(-376.05 -192.517)" fill="#00c7e6"/>
              </g>
            </g>
            <g id="Group_190" data-name="Group 190" transform="translate(58.234 27.899)">
              <path id="Path_245" data-name="Path 245" d="M397.682,198.945a5.9,5.9,0,0,0,5.9-5.9c0-.088-.01-.173-.014-.259a80.706,80.706,0,0,0-9.032-.234c-.914.021-1.831.078-2.744.173-.005.107-.015.212-.015.32A5.9,5.9,0,0,0,397.682,198.945Z" transform="translate(-391.779 -192.518)" fill="#009db5"/>
            </g>
            <g id="Group_199" data-name="Group 199" transform="translate(51.96)">
              <g id="Group_191" data-name="Group 191" transform="translate(1.435 12.021)">
                <path id="Path_246" data-name="Path 246" d="M395.757,178.455l-5.6-.334a2.614,2.614,0,1,0-.312,5.218l5.908.353v-5.237Z" transform="translate(-387.39 -178.116)" fill="#ff808c"/>
              </g>
              <g id="Group_192" data-name="Group 192" transform="translate(10.907 12.46)">
                <path id="Path_247" data-name="Path 247" d="M395.981,183.751l5.6.335a2.614,2.614,0,0,0,.312-5.218l-5.911-.354Z" transform="translate(-395.981 -178.514)" fill="#ffb8bc"/>
              </g>
              <g id="Group_194" data-name="Group 194" transform="translate(8.57 18.02)">
                <g id="Group_193" data-name="Group 193">
                  <path id="Path_248" data-name="Path 248" d="M397.393,197.852h0A3.7,3.7,0,0,1,393.865,194l.376-8.467,7.976-1.974-.97,10.768A3.692,3.692,0,0,1,397.393,197.852Z" transform="translate(-393.862 -183.557)" fill="#ffb8bc"/>
                </g>
              </g>
              <g id="Group_196" data-name="Group 196" transform="translate(8.57 17.662)">
                <g id="Group_195" data-name="Group 195">
                  <path id="Path_249" data-name="Path 249" d="M399.872,183.232l-5.512.261-.5,9.975a7.148,7.148,0,0,0,6.875-6.428A22.51,22.51,0,0,0,399.872,183.232Z" transform="translate(-393.862 -183.232)" fill="#ff808c"/>
                </g>
              </g>
              <g id="Group_197" data-name="Group 197" transform="translate(2.159 1.758)">
                <path id="Path_250" data-name="Path 250" d="M394.981,192.528h0a7.4,7.4,0,0,1-6.921-7.8l.538-8.987a7.4,7.4,0,0,1,7.8-6.919h0a7.394,7.394,0,0,1,6.919,7.8l-.536,8.987A7.4,7.4,0,0,1,394.981,192.528Z" transform="translate(-388.047 -168.807)" fill="#ffb8bc"/>
              </g>
              <g id="Group_198" data-name="Group 198">
                <path id="Path_251" data-name="Path 251" d="M404.255,179.65c1.179-2.842,1.982-6.451-.18-9.086-1.906-2.323-4.527-3.97-7.633-3.127a17.357,17.357,0,0,1-4.645.693c-1.494-.011-3.177-.61-4.508.369-1.739,1.28-1.368,4.055-.287,5.606,1.659,2.38,5.333,3.126,8,2.374,1.453-.41,3.106-1.064,4.05.545a11.147,11.147,0,0,1,.728,3.255C400.487,183.445,403.4,181.723,404.255,179.65Z" transform="translate(-386.089 -167.213)" fill="#723891"/>
              </g>
            </g>
            <g id="Group_201" data-name="Group 201" transform="translate(31.259 32.829)">
              <g id="Group_200" data-name="Group 200">
                <path id="Path_252" data-name="Path 252" d="M368.224,254.08a4.756,4.756,0,0,1-.669-1.315,4.807,4.807,0,0,1,3.066-6.068c20.268-6.66,32.362-28.323,38.441-48.772.756-2.546,7.706.827,10.25,1.584a4.807,4.807,0,0,1,3.239,5.979,76.737,76.737,0,0,1-48.929,50.345A4.811,4.811,0,0,1,368.224,254.08Z" transform="translate(-367.312 -196.989)" fill="#ffb8bc"/>
              </g>
            </g>
            <g id="Group_202" data-name="Group 202" transform="translate(62.899 31.55)">
              <path id="Path_253" data-name="Path 253" d="M410.106,226.65c3.967-6.074,10.508-15.519,10.493-25.03,0-2.5-10.794-7.131-13.175-5.421-4.1,2.945-11.413,23.653-11.413,23.653C402,222.833,404.99,224.741,410.106,226.65Z" transform="translate(-396.01 -195.829)" fill="#00c7e6"/>
            </g>
          </g>
          <g id="Group_240" data-name="Group 240" transform="translate(259.088)">
            <g id="Group_209" data-name="Group 209" transform="translate(102.753 182.914)">
              <g id="Group_205" data-name="Group 205" transform="translate(0 0)">
                <g id="Group_204" data-name="Group 204" transform="translate(0 0)">
                  <rect id="Rectangle_1238" data-name="Rectangle 1238" width="19.525" height="8.401" transform="matrix(0.469, 0.883, -0.883, 0.469, 7.422, 0)" fill="#ffb8bc"/>
                </g>
              </g>
              <g id="Group_207" data-name="Group 207" transform="translate(0.516 15.605)">
                <g id="Group_206" data-name="Group 206">
                  <path id="Path_254" data-name="Path 254" d="M510.589,345.443c-2.774,1.11-9.2,4.784-9.2,4.785s-6.371,6.933-6.363,9.978c.007,1.923,2.973,1.629,4.276.8l14.8-10.3Z" transform="translate(-495.022 -345.443)" fill="#723891"/>
                </g>
              </g>
              <g id="Group_208" data-name="Group 208" transform="translate(6.879 12.774)">
                <path id="Path_255" data-name="Path 255" d="M510,345.706s-4.77,5.373-9.2,4.785c.063-.069,1.052-1.193,1.114-1.263,0,0,3.241-5.207,6.053-6.353C507.959,342.876,510,345.711,510,345.706Z" transform="translate(-500.793 -342.875)" fill="#ffb8bc"/>
              </g>
            </g>
            <g id="Group_210" data-name="Group 210" transform="translate(54.883 66.527)">
              <rect id="Rectangle_1239" data-name="Rectangle 1239" width="23.521" height="17.34" fill="#723891"/>
            </g>
            <g id="Group_216" data-name="Group 216" transform="translate(46.463 190.91)">
              <g id="Group_212" data-name="Group 212" transform="translate(10.453 0)">
                <g id="Group_211" data-name="Group 211" transform="translate(0)">
                  <rect id="Rectangle_1240" data-name="Rectangle 1240" width="19.524" height="8.4" transform="translate(8.383 0) rotate(86.25)" fill="#ffb8bc"/>
                </g>
              </g>
              <g id="Group_214" data-name="Group 214" transform="translate(0 17.758)">
                <g id="Group_213" data-name="Group 213">
                  <path id="Path_256" data-name="Path 256" d="M463.883,354.662c-2.987-.125-10.354.592-10.356.594s-8.655,3.711-9.894,6.493c-.783,1.757,2.044,2.706,3.573,2.48l17.72-3.327Z" transform="translate(-443.498 -354.648)" fill="#723891"/>
                </g>
              </g>
              <g id="Group_215" data-name="Group 215" transform="translate(10.029 14.353)">
                <path id="Path_257" data-name="Path 257" d="M462.95,354.979s-6.554,2.946-10.356.594c.085-.04,1.448-.659,1.533-.7,0,0,5.09-3.422,8.124-3.314C462.252,351.563,462.95,354.984,462.95,354.979Z" transform="translate(-452.594 -351.56)" fill="#ffb8bc"/>
              </g>
            </g>
            <g id="Group_218" data-name="Group 218" transform="translate(48.756 61.896)">
              <g id="Group_217" data-name="Group 217">
                <path id="Path_258" data-name="Path 258" d="M453.315,362.841c-.094-1.055-11.41-77.383-6.5-141.316l19.569,19.029c-2.709,63.546-2.757,121.109-2.709,121.648Z" transform="translate(-445.578 -221.525)" fill="#723891"/>
              </g>
            </g>
            <g id="Group_222" data-name="Group 222" transform="translate(0 30.241)">
              <g id="Group_220" data-name="Group 220" transform="translate(0 2.588)">
                <g id="Group_219" data-name="Group 219">
                  <path id="Path_259" data-name="Path 259" d="M401.812,243.434a4.808,4.808,0,0,1,3.724-6.81c21.151-2.787,37.052-21.832,46.817-40.8,1.217-2.362,7.419,2.241,9.779,3.456a4.806,4.806,0,0,1,2.074,6.476,76.736,76.736,0,0,1-57.413,40.4A4.812,4.812,0,0,1,401.812,243.434Z" transform="translate(-401.356 -195.162)" fill="#ffb8bc"/>
                </g>
              </g>
              <g id="Group_221" data-name="Group 221" transform="translate(37.022)">
                <path id="Path_260" data-name="Path 260" d="M447.691,226.5c5.024-5.233,13.33-16.231,15.078-25.58.46-2.462-.128-5.645-2.186-7.281-2.619-2.083-8.487.314-11.147,1.555-4.574,2.133-6.032,11.568-14.5,20.433C439.527,219.58,443.02,223.669,447.691,226.5Z" transform="translate(-434.935 -192.815)" fill="#d93f7a"/>
              </g>
            </g>
            <g id="Group_223" data-name="Group 223" transform="translate(67.893 68.394)">
              <path id="Path_261" data-name="Path 261" d="M488.207,260.349c5.768-14.12.663-29.99-12.159-32.93l-12.835,12.967c-4.071,57.658,37.744,113.335,39.012,115.69l9.317-4.668C511.294,350.942,491.2,306.475,488.207,260.349Z" transform="translate(-462.935 -227.419)" fill="#723891"/>
            </g>
            <g id="Group_225" data-name="Group 225" transform="translate(46.046 27.692)">
              <g id="Group_224" data-name="Group 224">
                <path id="Path_262" data-name="Path 262" d="M486.093,235.415H446.409s-3.289-28.788-3.289-28.822c0-11.453,10.269-15.83,20.1-16.058,11.417-.266,28.528.818,28.528,16.058Z" transform="translate(-443.12 -190.502)" fill="#ff4a90"/>
              </g>
            </g>
            <g id="Group_226" data-name="Group 226" transform="translate(43.497 39.756)">
              <path id="Path_263" data-name="Path 263" d="M464.095,220.843H449.064a8.25,8.25,0,0,1-7.893-10.652l2.661-8.747,20.262,3.207Z" transform="translate(-440.808 -201.444)" fill="#ff4a90"/>
            </g>
            <g id="Group_227" data-name="Group 227" transform="translate(63.387 27.693)">
              <path id="Path_264" data-name="Path 264" d="M464.751,196.931a5.9,5.9,0,0,0,5.9-5.9c0-.087-.01-.173-.013-.26a80.979,80.979,0,0,0-9.033-.233c-.914.021-1.831.078-2.744.174-.005.106-.015.212-.015.32A5.9,5.9,0,0,0,464.751,196.931Z" transform="translate(-458.848 -190.504)" fill="#d93f7a"/>
            </g>
            <g id="Group_239" data-name="Group 239" transform="translate(58.547)">
              <g id="Group_228" data-name="Group 228" transform="translate(16.988)">
                <path id="Path_265" data-name="Path 265" d="M471.8,170.34a9.8,9.8,0,0,0,1.172-2.351,4.913,4.913,0,0,1,1.462-2.153,2.013,2.013,0,0,1,2.438-.07,5.564,5.564,0,0,1,.757,1.032,4.606,4.606,0,0,0,3.606,1.685,19.479,19.479,0,0,0,4.082-.5,8.61,8.61,0,0,1,4.082.043,3.01,3.01,0,0,1,1.42.881,1.7,1.7,0,0,1,.362,1.582c-.191.569-.733.96-.948,1.518a1.908,1.908,0,0,0,.24,1.667,4.279,4.279,0,0,0,1.261,1.191,23.522,23.522,0,0,1,3.632,2.464c1.04,1.034,1.664,2.709.937,3.982a3.705,3.705,0,0,1-2.211,1.535c-3.174.984-6.615-.036-9.642-1.408s-5.949-3.122-9.223-3.693a8.942,8.942,0,0,1-2.83-.711,4.515,4.515,0,0,1-1.926-2.389,5.25,5.25,0,0,1-.535-2.777C470.158,171.162,471.323,170.945,471.8,170.34Z" transform="translate(-469.867 -165.386)" fill="#723891"/>
              </g>
              <g id="Group_229" data-name="Group 229" transform="translate(14.789 3.731)">
                <path id="Path_266" data-name="Path 266" d="M473.363,170.418a7.289,7.289,0,0,1,1.406,6.067c-.319,1.4-1.408,2.781-2.97,2.658a3.167,3.167,0,0,1-2.264-1.475,9.37,9.37,0,0,1-1.075-2.568c-.452-1.474-1.079-4.108.046-5.5,1.234-1.52,3.365-.722,4.534.459C473.153,170.177,473.26,170.3,473.363,170.418Z" transform="translate(-467.872 -168.77)" fill="#00c7e6"/>
              </g>
              <g id="Group_230" data-name="Group 230" transform="translate(8.073 1.137)">
                <path id="Path_267" data-name="Path 267" d="M470.816,170.943a10.844,10.844,0,0,0-8.416-4.526l-.62,1c.645,4.892,1.318,9.885,3.5,14.311a4.8,4.8,0,0,0,2.766,2.821,3.354,3.354,0,0,0,3.141-1.066,6.5,6.5,0,0,0,1.476-3.1A11.979,11.979,0,0,0,470.816,170.943Z" transform="translate(-461.781 -166.417)" fill="#723891"/>
              </g>
              <g id="Group_231" data-name="Group 231" transform="translate(0 11.814)">
                <path id="Path_268" data-name="Path 268" d="M462.826,176.441l-5.6-.335a2.614,2.614,0,0,0-.312,5.219l5.91.354Z" transform="translate(-454.459 -176.101)" fill="#ff808c"/>
              </g>
              <g id="Group_232" data-name="Group 232" transform="translate(9.473 12.253)">
                <path id="Path_269" data-name="Path 269" d="M463.051,181.736l5.6.335a2.614,2.614,0,0,0,.312-5.218l-5.911-.354Z" transform="translate(-463.051 -176.499)" fill="#ffb8bc"/>
              </g>
              <g id="Group_234" data-name="Group 234" transform="translate(7.138 17.813)">
                <g id="Group_233" data-name="Group 233">
                  <path id="Path_270" data-name="Path 270" d="M464.463,195.837h0a3.692,3.692,0,0,1-3.527-3.854l.375-8.467,7.976-1.973-.97,10.767A3.693,3.693,0,0,1,464.463,195.837Z" transform="translate(-460.933 -181.542)" fill="#ffb8bc"/>
                </g>
              </g>
              <g id="Group_236" data-name="Group 236" transform="translate(7.137 17.455)">
                <g id="Group_235" data-name="Group 235">
                  <path id="Path_271" data-name="Path 271" d="M466.943,181.217l-5.513.261-.5,9.975a7.151,7.151,0,0,0,6.876-6.427A22.7,22.7,0,0,0,466.943,181.217Z" transform="translate(-460.932 -181.217)" fill="#ff808c"/>
                </g>
              </g>
              <g id="Group_237" data-name="Group 237" transform="translate(0.725 1.551)">
                <path id="Path_272" data-name="Path 272" d="M462.05,190.513h0a7.4,7.4,0,0,1-6.921-7.8l.538-8.987a7.4,7.4,0,0,1,7.8-6.921h0a7.394,7.394,0,0,1,6.919,7.8l-.537,8.987A7.4,7.4,0,0,1,462.05,190.513Z" transform="translate(-455.116 -166.792)" fill="#ffb8bc"/>
              </g>
              <g id="Group_238" data-name="Group 238" transform="translate(0.299 0.486)">
                <path id="Path_273" data-name="Path 273" d="M455.254,169.257c-3.127,4.63,8.463,14.233,15.824,8.336C478.013,172.035,461.568,159.908,455.254,169.257Z" transform="translate(-454.73 -165.827)" fill="#723891"/>
              </g>
            </g>
          </g>
          <g id="Group_276" data-name="Group 276" transform="translate(65.754 91.705)">
            <g id="Group_241" data-name="Group 241" transform="translate(5.107 84.831)">
              <path id="Path_274" data-name="Path 274" d="M328.841,326.86a2.311,2.311,0,0,0-3.291-1.062c-1.344.724-2.576.974-2.1,2.435,1.171,3.6,5.012,17.048,5.012,17.048l-95.327-.139a2.67,2.67,0,0,0-.045,5.326v12.255a1.857,1.857,0,1,0,3.707,0V350.477c3.662,0,8.75.013,14.688.022v12.63a1.857,1.857,0,1,0,3.707,0V350.505c11.994.018,26.691.039,40.078.06v12.16a1.857,1.857,0,1,0,3.707,0V350.57l15.256.023v12.132a1.857,1.857,0,1,0,3.706,0V350.6c8.753.012,14.661.022,15.132.023h.035a2.5,2.5,0,0,0,1.667-.66,2.647,2.647,0,0,0,.834-2.01C335.6,347.111,330.422,332,328.841,326.86Z" transform="translate(-230.633 -325.504)" fill="#a6c3ff"/>
            </g>
            <g id="Group_244" data-name="Group 244" transform="translate(3.885 116.155)">
              <g id="Group_243" data-name="Group 243">
                <g id="Group_242" data-name="Group 242">
                  <path id="Path_275" data-name="Path 275" d="M235.056,365.716h0a5.725,5.725,0,0,0,5.531-5.9h0a5.725,5.725,0,0,0-5.531-5.9h0a5.725,5.725,0,0,0-5.531,5.9h0A5.725,5.725,0,0,0,235.056,365.716Z" transform="translate(-229.525 -353.915)" fill="#723891"/>
                </g>
              </g>
            </g>
            <g id="Group_247" data-name="Group 247" transform="translate(66.063 116.155)">
              <g id="Group_246" data-name="Group 246">
                <g id="Group_245" data-name="Group 245">
                  <path id="Path_276" data-name="Path 276" d="M291.451,365.716h0a5.726,5.726,0,0,0,5.533-5.9h0a5.725,5.725,0,0,0-5.533-5.9h0a5.726,5.726,0,0,0-5.531,5.9h0A5.725,5.725,0,0,0,291.451,365.716Z" transform="translate(-285.92 -353.915)" fill="#723891"/>
                </g>
              </g>
            </g>
            <g id="Group_250" data-name="Group 250" transform="translate(22.279 116.155)">
              <g id="Group_249" data-name="Group 249">
                <g id="Group_248" data-name="Group 248">
                  <path id="Path_277" data-name="Path 277" d="M251.739,365.716h0a5.725,5.725,0,0,0,5.531-5.9h0a5.724,5.724,0,0,0-5.531-5.9h0a5.726,5.726,0,0,0-5.531,5.9h0A5.725,5.725,0,0,0,251.739,365.716Z" transform="translate(-246.208 -353.915)" fill="#723891"/>
                </g>
              </g>
            </g>
            <g id="Group_253" data-name="Group 253" transform="translate(84.925 116.155)">
              <g id="Group_252" data-name="Group 252">
                <g id="Group_251" data-name="Group 251">
                  <path id="Path_278" data-name="Path 278" d="M308.561,365.716h0a5.725,5.725,0,0,0,5.531-5.9h0a5.726,5.726,0,0,0-5.531-5.9h0a5.726,5.726,0,0,0-5.533,5.9h0A5.725,5.725,0,0,0,308.561,365.716Z" transform="translate(-303.028 -353.915)" fill="#723891"/>
                </g>
              </g>
            </g>
            <g id="Group_255" data-name="Group 255" transform="translate(0 87.312)">
              <g id="Group_254" data-name="Group 254">
                <path id="Path_279" data-name="Path 279" d="M226,327.754Z" transform="translate(-226.001 -327.754)" fill="#a6c3ff"/>
              </g>
            </g>
            <g id="Group_257" data-name="Group 257" transform="translate(101.729 1.392)">
              <g id="Group_256" data-name="Group 256">
                <path id="Path_280" data-name="Path 280" d="M319.873,336.343a1.622,1.622,0,0,0,1.542-1.248l21.09-80.514a1.618,1.618,0,0,1,1.523-1.249c2.456-.026,2.891-.067,5.005-.09a1.655,1.655,0,0,0,1.578-1.725h0a1.656,1.656,0,0,0-1.619-1.691l-5.475.095c-2.346.025-3.174.808-3.739,2.368l-21.451,81.886a1.725,1.725,0,0,0,1.111,2.1A1.483,1.483,0,0,0,319.873,336.343Z" transform="translate(-318.269 -249.825)" fill="#d4e2ff"/>
              </g>
            </g>
            <g id="Group_259" data-name="Group 259" transform="translate(2.765 13.545)">
              <g id="Group_258" data-name="Group 258">
                <path id="Path_281" data-name="Path 281" d="M229.211,334.262a1.742,1.742,0,0,1-.626-1.337l-.076-61.376a1.768,1.768,0,0,1,.463-1.219,1.556,1.556,0,0,1,1.139-.508l117.555-8.975a1.713,1.713,0,0,1,0,3.418l-115.936,8.976.049,58.6h97.3a1.713,1.713,0,0,1,0,3.418H230.787A1.909,1.909,0,0,1,229.211,334.262Zm.971.352Z" transform="translate(-228.509 -260.847)" fill="#d4e2ff"/>
              </g>
            </g>
            <g id="Group_261" data-name="Group 261" transform="translate(129.786)">
              <g id="Group_260" data-name="Group 260">
                <path id="Path_282" data-name="Path 282" d="M346.661,254.841h23.691a3.046,3.046,0,0,0,2.944-3.14h0a3.047,3.047,0,0,0-2.944-3.139H346.661a3.045,3.045,0,0,0-2.944,3.139h0A3.046,3.046,0,0,0,346.661,254.841Z" transform="translate(-343.717 -248.562)" fill="#723891"/>
              </g>
            </g>
            <g id="Group_263" data-name="Group 263" transform="translate(23.996 22.094)">
              <g id="Group_262" data-name="Group 262">
                <path id="Path_283" data-name="Path 283" d="M248.515,333.41a.733.733,0,0,0,.75-.713V269.314a.751.751,0,0,0-1.5,0V332.7A.734.734,0,0,0,248.515,333.41Z" transform="translate(-247.765 -268.601)" fill="#d4e2ff"/>
              </g>
            </g>
            <g id="Group_265" data-name="Group 265" transform="translate(43.081 20.203)">
              <g id="Group_264" data-name="Group 264">
                <path id="Path_284" data-name="Path 284" d="M265.826,333.586a.743.743,0,0,0,.751-.735V267.621a.75.75,0,0,0-1.5,0v65.229A.743.743,0,0,0,265.826,333.586Z" transform="translate(-265.076 -266.886)" fill="#d4e2ff"/>
              </g>
            </g>
            <g id="Group_267" data-name="Group 267" transform="translate(62.167 20.203)">
              <g id="Group_266" data-name="Group 266">
                <path id="Path_285" data-name="Path 285" d="M283.136,333.586a.743.743,0,0,0,.751-.735V267.621a.75.75,0,0,0-1.5,0v65.229A.743.743,0,0,0,283.136,333.586Z" transform="translate(-282.387 -266.886)" fill="#d4e2ff"/>
              </g>
            </g>
            <g id="Group_269" data-name="Group 269" transform="translate(100.337 15.841)">
              <g id="Group_268" data-name="Group 268">
                <path id="Path_286" data-name="Path 286" d="M317.758,333.992a.768.768,0,0,0,.75-.783V263.714a.751.751,0,1,0-1.5,0v69.495A.77.77,0,0,0,317.758,333.992Z" transform="translate(-317.007 -262.93)" fill="#d4e2ff"/>
              </g>
            </g>
            <g id="Group_271" data-name="Group 271" transform="translate(81.253 18.245)">
              <g id="Group_270" data-name="Group 270">
                <path id="Path_287" data-name="Path 287" d="M300.447,333.768a.754.754,0,0,0,.751-.757V265.867a.75.75,0,1,0-1.5,0v67.143A.753.753,0,0,0,300.447,333.768Z" transform="translate(-299.698 -265.11)" fill="#d4e2ff"/>
              </g>
            </g>
            <g id="Group_273" data-name="Group 273" transform="translate(3.773 33.643)">
              <g id="Group_272" data-name="Group 272">
                <path id="Path_288" data-name="Path 288" d="M230.173,280.677H342.524a.8.8,0,0,0,0-1.6H230.173a.8.8,0,0,0,0,1.6Z" transform="translate(-229.423 -279.076)" fill="#d4e2ff"/>
              </g>
            </g>
            <g id="Group_275" data-name="Group 275" transform="translate(2.772 57.31)">
              <g id="Group_274" data-name="Group 274">
                <path id="Path_289" data-name="Path 289" d="M229.265,302.143H336.42a.8.8,0,0,0,0-1.6H229.265a.8.8,0,0,0,0,1.6Z" transform="translate(-228.515 -300.542)" fill="#d4e2ff"/>
              </g>
            </g>
          </g>
          <g id="Group_281" data-name="Group 281" transform="translate(351.237 100.654)">
            <g id="Group_280" data-name="Group 280" transform="translate(0)">
              <g id="Group_277" data-name="Group 277" transform="translate(0 8.893)">
                <path id="Path_290" data-name="Path 290" d="M531.815,317.368l-7.563-52.623,0,.169-.008-.168-37.527,1.828-1.777,53.077Z" transform="translate(-484.935 -264.745)" fill="#00c7e6"/>
              </g>
              <g id="Group_279" data-name="Group 279" transform="translate(13.04)">
                <g id="Group_278" data-name="Group 278">
                  <path id="Path_291" data-name="Path 291" d="M509.374,267.863a.876.876,0,0,1-.918-.832l-.192-3.959a4.877,4.877,0,0,0-9.742.474l.193,3.961a.876.876,0,0,1-1.75.085l-.194-3.961a6.629,6.629,0,1,1,13.242-.645l.2,3.959A.877.877,0,0,1,509.374,267.863Z" transform="translate(-496.763 -256.679)" fill="#009db5"/>
                </g>
              </g>
            </g>
          </g>
          <g id="Group_283" data-name="Group 283" transform="translate(337.492 32.89)">
            <g id="Group_282" data-name="Group 282" transform="translate(0)">
              <path id="Path_292" data-name="Path 292" d="M506.668,266.136a4.81,4.81,0,0,1-5.692-5.278c2.472-21.19-12.1-41.267-28.106-55.376-1.992-1.756,3.988-6.645,5.744-8.636a4.806,4.806,0,0,1,6.786-.428,76.737,76.737,0,0,1,25.126,65.553A4.808,4.808,0,0,1,506.668,266.136Z" transform="translate(-472.469 -195.217)" fill="#ffb8bc"/>
            </g>
          </g>
          <g id="Group_284" data-name="Group 284" transform="translate(336.335 30.083)">
            <path id="Path_293" data-name="Path 293" d="M500.168,212.562c-3.845-6.152-10.461-15.087-19.1-19.068-2.273-1.049-5.5-1.257-7.594.339-2.66,2.03-2.175,7.074-1.623,9.955.948,4.959,6.328,8.465,9.737,11.874.669.668,6.929,8.42,6.929,8.42Z" transform="translate(-471.419 -192.671)" fill="#ff4a90"/>
          </g>
          <g id="Group_288" data-name="Group 288" transform="translate(0 24.709)">
            <g id="Group_285" data-name="Group 285" transform="translate(70.937)">
              <path id="Path_294" data-name="Path 294" d="M248.892,206.922a2.266,2.266,0,0,1-2.2-1.74l-6.5-27.155a2.266,2.266,0,1,1,4.408-1.056l6.5,27.154a2.267,2.267,0,0,1-1.677,2.733A2.192,2.192,0,0,1,248.892,206.922Z" transform="translate(-240.126 -175.231)" fill="#00c7e6"/>
            </g>
            <g id="Group_286" data-name="Group 286" transform="translate(0 61.014)">
              <path id="Path_295" data-name="Path 295" d="M203.129,248.142a2.248,2.248,0,0,1-1.044-.256L177.009,234.85a2.267,2.267,0,1,1,2.091-4.023l25.075,13.036a2.267,2.267,0,0,1-1.046,4.279Z" transform="translate(-175.786 -230.571)" fill="#00c7e6"/>
            </g>
            <g id="Group_287" data-name="Group 287" transform="translate(145.226 22.28)">
              <path id="Path_296" data-name="Path 296" d="M309.772,222.1a2.267,2.267,0,0,1-1.811-3.627l16.586-22.122a2.267,2.267,0,0,1,3.628,2.72l-16.587,22.122A2.266,2.266,0,0,1,309.772,222.1Z" transform="translate(-307.507 -195.439)" fill="#00c7e6"/>
            </g>
          </g>
        </g>
      </g>
    </g>
  </g>
</svg>
