<?xml version="1.0" standalone="no"?>
<!DOCTYPE svg PUBLIC "-//W3C//DTD SVG 20010904//EN"
 "http://www.w3.org/TR/2001/REC-SVG-20010904/DTD/svg10.dtd">
<svg version="1.0" xmlns="http://www.w3.org/2000/svg"
 width="1000.000000pt" height="1000.000000pt" viewBox="0 0 1000.000000 1000.000000"
 preserveAspectRatio="xMidYMid meet">

<g transform="translate(0.000000,1000.000000) scale(0.100000,-0.100000)"
fill="#000000" stroke="none">
<path d="M502 9491 c-15 -9 -17 -488 -1 -507 9 -11 42 -14 144 -14 74 0 140 3
149 6 14 5 16 30 16 170 0 109 -4 164 -11 164 -5 0 -7 -6 -3 -12 4 -7 -2 -5
-13 5 -11 9 -23 14 -27 10 -4 -5 -6 -1 -4 7 2 8 -2 14 -7 15 -6 0 -24 10 -40
23 -26 20 -26 21 -5 11 14 -7 28 -16 31 -21 3 -5 9 -3 12 6 4 9 3 15 -1 14
-15 -4 -52 14 -47 23 9 14 -2 11 -18 -6 -13 -13 -16 -13 -21 1 -3 8 -2 12 3 9
5 -3 13 0 17 6 4 7 3 9 -4 5 -6 -3 -15 1 -20 10 -8 15 -10 15 -15 0 -5 -11 -3
-15 5 -10 7 4 8 3 4 -5 -6 -9 -11 -9 -22 0 -10 8 -11 15 -4 24 8 10 8 15 -1
21 -7 4 -9 3 -6 -2 3 -6 -3 -15 -14 -22 -10 -7 -19 -9 -18 -5 3 20 -2 34 -10
28 -5 -3 -12 -1 -16 5 -4 6 -11 7 -17 4 -7 -5 -8 -2 -3 6 6 9 4 12 -7 8 -8 -4
-15 0 -15 7 0 19 18 14 37 -9 14 -16 17 -17 17 -3 0 9 -4 14 -8 11 -4 -2 -9 1
-11 8 -5 13 -31 19 -46 9z m162 -457 c21 -8 21 -40 0 -48 -21 -8 -34 1 -34 23
0 28 9 34 34 25z"/>
<path d="M587 9449 c4 -13 8 -18 11 -10 2 7 -1 18 -6 23 -8 8 -9 4 -5 -13z"/>
<path d="M756 9351 c-3 -4 3 -16 13 -25 13 -11 21 -14 26 -7 6 11 5 12 -17 15
-7 1 -12 7 -10 14 2 14 -4 16 -12 3z"/>
<path d="M1557 9111 c-31 -60 -57 -113 -57 -120 0 -14 37 -14 46 0 5 8 34 10
95 6 l88 -6 -55 112 c-31 62 -57 113 -58 114 -1 1 -27 -47 -59 -106z m78 -21
c22 -42 19 -50 -20 -50 -19 0 -35 5 -35 10 0 13 29 70 35 70 2 0 11 -13 20
-30z"/>
<path d="M842 9098 l3 -113 68 0 c66 0 70 1 103 37 38 42 44 80 19 128 -21 41
-63 60 -135 60 l-61 0 3 -112z m132 51 c54 -42 25 -119 -46 -119 l-38 0 0 70
0 70 29 0 c15 0 40 -9 55 -21z"/>
<path d="M1081 9124 c4 -82 5 -87 37 -115 44 -40 93 -40 133 0 28 28 29 34 29
116 0 77 -2 86 -17 83 -15 -3 -19 -16 -21 -78 -3 -80 -18 -110 -56 -110 -47 0
-66 37 -66 124 0 60 -2 66 -21 66 -20 0 -21 -4 -18 -86z"/>
<path d="M1320 9190 c0 -17 7 -20 40 -20 l40 0 0 -96 c0 -93 1 -95 23 -92 21
3 22 8 23 93 l2 90 41 3 c33 3 41 7 41 23 0 18 -8 19 -105 19 -98 0 -105 -1
-105 -20z"/>
<path d="M1800 9203 c-41 -15 -54 -78 -22 -106 12 -11 36 -17 69 -17 34 0 55
-5 64 -16 22 -26 -14 -44 -88 -44 -49 0 -63 -3 -63 -15 0 -12 15 -15 78 -15
86 0 97 4 110 40 21 56 -19 90 -104 90 -41 0 -45 2 -42 23 3 20 9 22 65 25 50
2 65 7 73 22 10 19 7 20 -57 19 -37 0 -75 -3 -83 -6z"/>
<path d="M1990 9100 c0 -103 1 -110 20 -110 14 0 20 7 20 24 0 21 5 24 57 28
64 6 93 30 93 78 0 65 -36 90 -130 90 l-60 0 0 -110z m146 45 c12 -18 11 -24
-2 -43 -12 -17 -25 -22 -60 -22 l-44 0 0 46 0 45 46 -3 c34 -2 50 -9 60 -23z"/>
<path d="M2222 9105 c-28 -58 -52 -106 -52 -108 0 -1 50 -2 110 -2 61 0 110 1
110 2 0 9 -106 213 -110 213 -3 0 -29 -47 -58 -105z m81 -16 c24 -44 22 -49
-23 -49 -22 0 -40 2 -40 5 0 10 34 75 39 75 3 0 14 -14 24 -31z"/>
<path d="M2440 9100 c0 -103 1 -110 20 -110 19 0 20 7 20 90 l0 90 43 0 c47 0
67 -13 67 -45 0 -26 -18 -45 -42 -45 -23 0 -23 -4 4 -51 15 -27 28 -39 44 -39
22 0 23 1 7 29 -16 27 -16 29 5 56 30 38 28 71 -7 106 -27 26 -36 29 -95 29
l-66 0 0 -110z"/>
<path d="M2670 9208 c-1 -2 -2 -51 -3 -111 l-2 -107 88 0 c69 0 87 3 87 15 0
11 -16 15 -67 17 -65 3 -68 4 -68 28 0 24 3 25 68 28 58 2 68 6 65 20 -3 14
-17 18 -71 20 -64 3 -67 4 -67 27 0 24 3 25 65 25 54 0 66 3 75 20 10 19 8 20
-80 20 -49 0 -90 -1 -90 -2z"/>
<path d="M2890 9100 c0 -103 1 -110 20 -110 15 0 20 7 20 25 0 23 4 25 44 25
60 0 106 37 106 85 0 25 -8 40 -31 59 -26 22 -40 26 -95 26 l-64 0 0 -110z
m138 58 c7 -7 12 -21 12 -33 0 -32 -20 -45 -67 -45 l-43 0 0 45 0 45 43 0 c24
0 48 -5 55 -12z"/>
<path d="M3122 9105 c-28 -58 -52 -106 -52 -108 0 -1 50 -2 110 -2 61 0 110 1
110 2 0 9 -106 213 -110 213 -3 0 -29 -47 -58 -105z m81 -20 c9 -20 17 -38 17
-40 0 -3 -18 -5 -40 -5 -22 0 -40 4 -40 9 0 13 34 71 41 71 3 0 13 -16 22 -35z"/>
<path d="M3340 9101 c0 -104 1 -111 20 -111 19 0 20 7 20 90 l0 90 39 0 c40 0
71 -20 71 -45 0 -20 -28 -45 -51 -45 -19 0 -19 -2 5 -42 14 -24 34 -44 46 -46
24 -4 25 7 6 34 -13 17 -12 22 7 42 28 30 28 85 -1 114 -17 18 -37 23 -92 26
l-70 4 0 -111z"/>
<path d="M3550 9191 c0 -16 8 -20 43 -23 l42 -3 3 -87 c2 -75 5 -88 20 -88 15
0 17 12 17 87 l0 88 43 3 c34 3 42 7 42 23 0 18 -8 19 -105 19 -97 0 -105 -1
-105 -19z"/>
<path d="M9370 2290 l-325 -319 -145 -1 -144 0 69 -70 69 -70 158 0 c87 0 158
-3 158 -7 0 -5 -141 -149 -312 -320 l-313 -313 223 -223 c123 -123 227 -230
232 -238 8 -12 13 -10 32 8 l22 22 -217 212 c-119 116 -217 215 -217 220 0 5
17 9 38 9 36 0 48 -10 237 -200 190 -192 199 -199 217 -183 18 16 12 23 -157
193 -96 96 -175 179 -175 183 0 4 15 7 33 7 28 0 51 19 192 160 l160 160 155
0 155 0 -103 103 c-56 56 -102 106 -102 111 0 4 23 6 50 4 28 -1 52 2 54 7 3
6 5 4 5 -3 1 -9 7 -10 19 -4 9 4 23 7 30 6 6 -1 30 -2 52 -3 22 0 40 -6 40
-12 0 -5 -4 -8 -8 -5 -5 3 -9 -1 -9 -9 0 -13 3 -12 18 1 10 9 16 21 12 27 -4
6 8 1 25 -12 18 -12 29 -27 26 -33 -4 -7 -2 -8 4 -4 7 4 40 -20 79 -58 57 -55
69 -62 79 -48 8 11 13 12 18 3 6 -9 11 -9 24 1 13 10 14 10 8 0 -6 -9 -1 -11
18 -8 14 3 29 7 34 10 4 2 7 -8 6 -25 -1 -16 2 -26 7 -23 5 3 7 10 4 15 -4 5
-1 17 5 26 10 15 11 15 6 1 -7 -23 18 -56 29 -38 5 8 4 11 -2 7 -17 -11 -23
20 -7 34 12 10 13 9 7 -7 -6 -16 -5 -17 9 -6 11 9 18 10 23 2 15 -24 25 6 25
78 l0 76 -45 46 -45 46 45 44 c36 36 45 51 45 79 l0 36 -83 -83 -82 -82 -308
0 c-169 0 -307 2 -307 4 0 2 71 75 158 161 l157 156 220 -1 c121 -1 226 -1
233 -1 9 1 12 55 12 236 l0 235 -152 0 -153 0 -325 -320z"/>
<path d="M9380 1971 c0 -5 16 -23 35 -40 33 -29 41 -31 112 -31 l77 0 -39 40
c-39 39 -40 40 -112 40 -40 0 -73 -4 -73 -9z"/>
<path d="M9965 1850 l-29 -30 32 -33 32 -32 0 63 c0 34 -1 62 -3 62 -2 0 -16
-14 -32 -30z"/>
<path d="M9459 1726 c6 -7 7 -17 3 -21 -4 -5 0 -4 8 1 8 5 18 9 22 9 3 0 10 4
15 8 4 5 4 8 -2 7 -5 -1 -12 -1 -15 0 -3 1 -13 3 -23 5 -14 3 -16 0 -8 -9z"/>
<path d="M9326 1718 c3 -5 10 -6 15 -3 13 9 11 12 -6 12 -8 0 -12 -4 -9 -9z"/>
<path d="M9356 1713 c-6 -14 -5 -15 5 -6 7 7 10 15 7 18 -3 3 -9 -2 -12 -12z"/>
<path d="M9383 1715 c0 -8 4 -12 9 -9 5 3 6 10 3 15 -9 13 -12 11 -12 -6z"/>
<path d="M9413 1714 c0 -9 4 -11 12 -4 7 5 14 9 16 7 2 -1 3 0 1 2 -7 11 -29
7 -29 -5z"/>
<path d="M9516 1713 c-6 -14 -5 -15 5 -6 7 7 10 15 7 18 -3 3 -9 -2 -12 -12z"/>
<path d="M9580 1726 c0 -2 8 -10 18 -17 15 -13 16 -12 3 4 -13 16 -21 21 -21
13z"/>
<path d="M9815 1569 c-6 -8 -4 -10 5 -4 10 6 12 4 6 -11 -6 -15 -5 -17 5 -6 9
9 10 15 2 23 -8 8 -13 7 -18 -2z"/>
<path d="M9851 1564 c0 -11 3 -14 6 -6 3 7 2 16 -1 19 -3 4 -6 -2 -5 -13z"/>
<path d="M9961 1564 c0 -11 3 -14 6 -6 3 7 2 16 -1 19 -3 4 -6 -2 -5 -13z"/>
<path d="M9070 1345 l-155 -155 151 0 150 0 39 -40 c28 -28 45 -39 61 -36 18
4 22 0 19 -15 -2 -11 0 -17 6 -14 5 4 7 11 4 16 -4 5 -2 9 3 9 17 0 22 -13 9
-29 -11 -14 -10 -14 6 -2 9 7 17 9 17 5 0 -5 10 -15 23 -23 12 -7 -9 19 -48
58 -41 42 -63 72 -55 72 59 5 75 -1 133 -58 33 -32 57 -51 54 -41 -8 22 2 29
25 17 10 -5 15 -15 12 -21 -4 -7 -3 -8 4 -4 7 4 12 3 12 -1 0 -5 10 -14 23
-22 12 -7 -9 18 -46 56 -37 38 -65 72 -62 75 3 3 22 3 43 1 29 -3 50 -17 99
-65 34 -34 69 -63 78 -64 8 -1 13 2 10 6 -3 5 -1 11 4 14 5 3 11 0 14 -8 3 -8
-30 -50 -86 -105 l-91 -91 237 0 238 0 -2 230 c-1 138 -6 230 -11 230 -6 0
-12 -9 -15 -19 -3 -11 -13 -21 -24 -24 -10 -3 -19 -12 -19 -20 0 -8 -9 -17
-20 -20 -11 -3 -20 -12 -20 -20 0 -8 -9 -17 -21 -20 -12 -3 -18 -10 -14 -16 3
-6 1 -11 -6 -11 -7 0 -22 -8 -33 -19 -21 -18 -21 -18 -40 0 -19 19 -19 19 17
19 20 0 37 3 37 7 0 4 -66 74 -147 155 l-148 148 -155 0 -155 0 -155 -155z
m900 -115 c0 -5 -4 -10 -10 -10 -5 0 -10 5 -10 10 0 6 5 10 10 10 6 0 10 -4
10 -10z m-40 -30 c0 -5 -4 -10 -10 -10 -5 0 -10 5 -10 10 0 6 5 10 10 10 6 0
10 -4 10 -10z m-203 -42 c18 -18 33 -36 33 -40 0 -11 -39 -53 -42 -47 -2 2
-28 30 -58 62 l-54 57 44 0 c36 0 50 -6 77 -32z m-56 -55 c6 -6 8 -16 4 -23
-5 -8 -12 -6 -26 6 -10 9 -19 21 -19 25 0 10 28 5 41 -8z"/>
<path d="M9293 1095 c4 -5 0 -16 -9 -26 -11 -12 -12 -19 -4 -24 8 -5 7 -11 -2
-23 -7 -9 -8 -13 -2 -9 7 4 18 -1 25 -11 12 -15 12 -16 -1 -5 -10 7 -21 8 -30
3 -8 -5 -19 -6 -25 -2 -5 3 -3 -3 5 -13 14 -17 13 -18 -3 -12 -11 4 -16 3 -12
-4 4 -5 16 -7 28 -4 13 4 17 3 11 -2 -6 -4 -10 -15 -9 -23 2 -10 -5 -17 -17
-17 -20 -2 -20 -1 -2 12 11 8 14 15 8 15 -17 0 -31 -22 -29 -47 1 -12 -2 -20
-7 -17 -4 3 -8 1 -8 -3 0 -12 303 -313 315 -313 6 0 80 -70 165 -155 l155
-155 77 0 78 0 0 150 0 150 -79 0 -79 0 -220 223 c-121 122 -228 228 -238 236
-11 8 -29 24 -42 35 -22 20 -24 20 -36 4 -7 -10 -16 -15 -20 -11 -3 3 1 14 10
24 12 14 13 18 2 25 -7 4 -10 3 -5 -1z m31 -76 c-3 -5 -10 -7 -15 -3 -5 3 -7
10 -3 15 3 5 10 7 15 3 5 -3 7 -10 3 -15z m-30 -38 c4 -5 -3 -7 -14 -4 -23 6
-26 13 -6 13 8 0 17 -4 20 -9z m321 -421 c3 -5 1 -10 -4 -10 -6 0 -11 5 -11
10 0 6 2 10 4 10 3 0 8 -4 11 -10z"/>
<path d="M8291 871 c-6 -4 19 -36 59 -76 59 -58 71 -67 84 -55 25 20 20 32
-33 84 -45 45 -85 62 -110 47z"/>
<path d="M8472 752 l-43 -37 75 -75 76 -74 72 2 c39 1 73 3 74 5 2 1 -45 51
-104 109 l-107 107 -43 -37z"/>
<path d="M9127 642 l-77 -77 83 -83 83 -82 76 82 77 83 -77 78 c-42 42 -79 77
-82 77 -3 0 -40 -35 -83 -78z"/>
<path d="M8105 400 l-150 -150 155 0 155 0 78 78 77 77 -73 73 c-40 39 -77 72
-82 72 -6 0 -78 -67 -160 -150z"/>
<path d="M9374 407 c-140 -141 -227 -236 -190 -207 18 14 19 13 13 -5 -6 -18
-6 -18 6 -3 10 12 17 14 31 6 9 -5 20 -8 23 -5 2 3 -5 8 -16 12 -26 8 -27 18
-3 36 15 12 16 12 4 -2 -10 -14 -9 -17 7 -22 12 -3 18 0 17 7 -2 6 -1 8 1 3 3
-4 9 -4 15 -1 5 4 5 -3 -2 -16 -6 -12 -9 -24 -6 -28 3 -3 6 0 6 8 0 9 4 9 13
2 7 -6 20 -6 32 -1 18 9 18 9 -2 5 -13 -2 -26 0 -29 5 -3 5 0 9 6 9 6 0 9 4 6
9 -3 5 2 15 12 22 15 13 16 12 3 -4 -15 -19 -2 -24 16 -6 8 8 15 3 27 -19 9
-17 21 -34 28 -38 6 -4 4 3 -5 17 -24 34 -21 42 6 16 13 -12 21 -26 19 -31 -3
-5 0 -6 6 -2 7 4 12 1 12 -9 0 -8 -29 -44 -65 -80 -36 -35 -65 -69 -65 -75 0
-7 105 -10 351 -10 348 1 351 1 334 20 -21 23 -34 27 -16 6 10 -12 8 -13 -9
-9 -21 5 -20 7 9 37 29 30 31 37 31 109 l0 77 -83 0 -82 0 -155 155 c-85 85
-157 155 -160 154 -3 0 -68 -64 -146 -142z m166 79 c0 -3 -4 -8 -10 -11 -5 -3
-10 -1 -10 4 0 6 5 11 10 11 6 0 10 -2 10 -4z m-40 -40 c0 -3 -4 -8 -10 -11
-5 -3 -10 -1 -10 4 0 6 5 11 10 11 6 0 10 -2 10 -4z m80 0 c0 -3 -4 -8 -10
-11 -5 -3 -10 -1 -10 4 0 6 5 11 10 11 6 0 10 -2 10 -4z m-120 -40 c0 -3 -4
-8 -10 -11 -5 -3 -10 -1 -10 4 0 6 5 11 10 11 6 0 10 -2 10 -4z m80 0 c0 -3
-4 -8 -10 -11 -5 -3 -10 -1 -10 4 0 6 5 11 10 11 6 0 10 -2 10 -4z m80 0 c0
-3 -4 -8 -10 -11 -5 -3 -10 -1 -10 4 0 6 5 11 10 11 6 0 10 -2 10 -4z m-205
-36 c3 -5 1 -10 -4 -10 -6 0 -11 5 -11 10 0 6 2 10 4 10 3 0 8 -4 11 -10z m80
0 c3 -5 1 -10 -4 -10 -6 0 -11 5 -11 10 0 6 2 10 4 10 3 0 8 -4 11 -10z m80 0
c3 -5 1 -10 -4 -10 -6 0 -11 5 -11 10 0 6 2 10 4 10 3 0 8 -4 11 -10z m-195
-40 c0 -5 -4 -10 -10 -10 -5 0 -10 5 -10 10 0 6 5 10 10 10 6 0 10 -4 10 -10z
m75 0 c3 -5 1 -10 -4 -10 -6 0 -11 5 -11 10 0 6 2 10 4 10 3 0 8 -4 11 -10z
m80 0 c3 -5 1 -10 -4 -10 -6 0 -11 5 -11 10 0 6 2 10 4 10 3 0 8 -4 11 -10z
m-195 -40 c0 -5 -4 -10 -10 -10 -5 0 -10 5 -10 10 0 6 5 10 10 10 6 0 10 -4
10 -10z m80 0 c0 -5 -4 -10 -10 -10 -5 0 -10 5 -10 10 0 6 5 10 10 10 6 0 10
-4 10 -10z m80 0 c0 -5 -4 -10 -10 -10 -5 0 -10 5 -10 10 0 6 5 10 10 10 6 0
10 -4 10 -10z m-200 -40 c0 -5 -4 -10 -10 -10 -5 0 -10 5 -10 10 0 6 5 10 10
10 6 0 10 -4 10 -10z m80 0 c0 -5 -4 -10 -10 -10 -5 0 -10 5 -10 10 0 6 5 10
10 10 6 0 10 -4 10 -10z m80 1 c0 -5 -7 -12 -16 -15 -8 -3 -12 -11 -8 -17 4
-8 3 -9 -4 -5 -9 5 -8 12 1 26 12 21 27 26 27 11z m35 -18 c-2 -10 -4 -22 -4
-28 -1 -5 -5 -3 -11 5 -5 9 -5 19 2 27 14 17 17 16 13 -4z m-45 -38 c-1 6 -2
17 -1 25 1 12 3 12 12 -2 6 -12 6 -23 -2 -36 -11 -18 -12 -18 -34 4 -37 36
-41 64 -5 29 17 -17 31 -25 30 -20z"/>
<path d="M8408 258 c-14 -14 -15 -18 -4 -18 8 0 17 -8 19 -17 4 -16 5 -16 6
-1 0 9 9 19 19 21 15 4 15 5 0 6 -9 0 -18 7 -20 14 -2 9 -8 8 -20 -5z"/>
<path d="M9346 183 c-6 -14 -5 -15 5 -6 7 7 10 15 7 18 -3 3 -9 -2 -12 -12z"/>
<path d="M7952 168 c4 -10 46 -14 156 -16 131 -2 152 0 152 13 0 13 -23 15
-156 15 -120 0 -155 -3 -152 -12z"/>
<path d="M9166 172 c-3 -5 1 -9 9 -9 8 0 12 4 9 9 -3 4 -7 8 -9 8 -2 0 -6 -4
-9 -8z"/>
<path d="M9240 176 c0 -2 7 -7 16 -10 8 -3 12 -2 9 4 -6 10 -25 14 -25 6z"/>
<path d="M9321 164 c0 -11 3 -14 6 -6 3 7 2 16 -1 19 -3 4 -6 -2 -5 -13z"/>
<path d="M9295 151 c-3 -5 -2 -12 3 -15 5 -3 9 1 9 9 0 17 -3 19 -12 6z"/>
<path d="M9177 133 c3 -7 6 -13 8 -13 2 0 5 6 8 13 3 8 -1 14 -8 14 -7 0 -11
-6 -8 -14z"/>
<path d="M7955 100 c-15 -25 13 -30 156 -30 142 0 149 1 149 20 0 19 -7 20
-149 20 -89 0 -152 -4 -156 -10z"/>
<path d="M7957 23 c-20 -19 6 -23 148 -23 131 0 155 2 155 15 0 13 -23 15
-148 15 -82 0 -152 -3 -155 -7z"/>
</g>
</svg>
