<svg width="36" height="34" viewBox="0 0 36 34" fill="none" xmlns="http://www.w3.org/2000/svg">
<path d="M0.874759 15.232C0.675796 15.1235 0.500947 14.9763 0.360674 14.7992C0.220402 14.6221 0.117589 14.4187 0.0583888 14.2013C-0.000811532 13.9838 -0.0151828 13.7568 0.016135 13.5337C0.0474527 13.3106 0.123816 13.0961 0.240655 12.903L2.81135 8.5C2.99987 8.16 3.29121 7.922 3.61683 7.786L17.0359 0.306C17.3101 0.102 17.6528 0 18.0127 0C18.3726 0 18.7154 0.102 18.9896 0.306L32.5286 7.854C32.8542 8.024 33.1284 8.296 33.2826 8.636L35.7677 12.92C36.2475 13.736 35.9562 14.773 35.1507 15.232L33.4369 16.218V24.65C33.4369 25.296 33.077 25.857 32.5286 26.146L18.9896 33.694C18.7154 33.898 18.3726 34 18.0127 34C17.6528 34 17.3101 33.898 17.0359 33.694L3.49687 26.146C3.22211 26.0028 2.99218 25.7876 2.83204 25.5239C2.6719 25.2601 2.58769 24.9579 2.58856 24.65V15.232C2.07442 15.521 1.42317 15.538 0.874759 15.232ZM18.0127 3.655V15.045L28.2269 9.35L18.0127 3.655ZM6.01615 23.647L16.2989 29.393V17.986L6.01615 12.257V23.647ZM30.0093 23.647V18.173L21.4403 23.103C20.8748 23.409 20.2407 23.392 19.7265 23.12V29.393L30.0093 23.647ZM21.1832 19.312L31.9459 13.141L30.9519 11.424L20.1892 17.595L21.1832 19.312Z" fill="white"/>
</svg>
