<svg width="36" height="36" viewBox="0 0 36 36" fill="none" xmlns="http://www.w3.org/2000/svg">
<path d="M35.3384 28.1997L27.1238 20.7308C26.7355 20.3779 26.2252 20.1896 25.7008 20.2059C25.1763 20.2221 24.6786 20.4415 24.3129 20.8177L19.4771 25.7909C18.3131 25.5686 15.973 24.8391 13.5642 22.4364C11.1554 20.0255 10.4259 17.6794 10.2097 16.5235L15.1788 11.6857C15.5555 11.3202 15.7752 10.8224 15.7915 10.2978C15.8077 9.77318 15.6191 9.26283 15.2657 8.87475L7.79885 0.662202C7.4453 0.272907 6.95391 0.0367713 6.42906 0.00394418C5.9042 -0.0288829 5.38722 0.144185 4.98791 0.486392L0.60277 4.24711C0.253395 4.59775 0.0448649 5.06442 0.0167362 5.55861C-0.0135758 6.06381 -0.591526 18.031 8.68801 27.3146C16.7833 35.4079 26.9237 36 29.7165 36C30.1247 36 30.3753 35.9879 30.442 35.9838C30.9361 35.9562 31.4025 35.7467 31.7514 35.3958L35.5101 31.0086C35.8537 30.6106 36.028 30.094 35.9959 29.5692C35.9639 29.0444 35.7279 28.5529 35.3384 28.1997Z" fill="white"/>
</svg>
