<svg width="55" height="44" viewBox="0 0 55 44" fill="none" xmlns="http://www.w3.org/2000/svg">
<path d="M19.2816 0H9.64087L7.61475 9.64073L9.64087 19.2816H19.2816V0Z" fill="#B4D2D7"/>
<path d="M0 0H9.64084V19.2816H0V0Z" fill="#E1EBF0"/>
<path d="M16.2427 3.03888H9.64087L7.61475 9.64074L9.64087 17.2558H16.2427V3.03888Z" fill="#E1EBF0"/>
<path d="M3.03906 3.03888V16.2427L5.0825 16.2425L9.64102 17.2558V3.03888H3.03906Z" fill="#FFF5F5"/>
<path d="M41.7966 12.1904H46.6638V15.2293H41.7966V12.1904Z" fill="#FFDA44"/>
<path d="M32.0864 9.15137V12.1902L38.8473 12.1904L36.8212 9.15137H32.0864Z" fill="#07485E"/>
<path d="M45.7593 26.599L42.4878 9.15137H36.821V31.4376L45.7593 26.599Z" fill="#FF415B"/>
<path d="M38.1881 31.4376H32.2525L31.2395 32.9571L32.2525 34.4764H38.1881V31.4376Z" fill="#FF415B"/>
<path d="M24.853 31.4376L29.2131 34.4764H32.2521V31.4376H24.853Z" fill="#FF7C48"/>
<path d="M49.6285 38.3291C52.5951 35.3625 52.5951 30.5528 49.6286 27.5862C46.662 24.6196 41.8523 24.6197 38.8857 27.5863C35.9191 30.5529 35.919 35.3626 38.8856 38.3292C41.8521 41.2958 46.6619 41.2957 49.6285 38.3291Z" fill="#03232E"/>
<path d="M45.3129 37.3722C47.7627 36.7932 49.2791 34.3378 48.7 31.8881C48.121 29.4384 45.6656 27.9219 43.2159 28.501C40.7662 29.08 39.2497 31.5354 39.8288 33.9851C40.4079 36.4348 42.8632 37.9513 45.3129 37.3722Z" fill="#B4D2D7"/>
<path d="M17.7621 40.5546C21.9582 40.5546 25.3597 37.1531 25.3597 32.957C25.3597 28.761 21.9582 25.3594 17.7621 25.3594C13.5661 25.3594 10.1646 28.761 10.1646 32.957C10.1646 37.1531 13.5661 40.5546 17.7621 40.5546Z" fill="#07485E"/>
<path d="M17.7621 37.5158C20.2798 37.5158 22.3208 35.4747 22.3208 32.957C22.3208 30.4393 20.2798 28.3983 17.7621 28.3983C15.2444 28.3983 13.2034 30.4393 13.2034 32.957C13.2034 35.4747 15.2444 37.5158 17.7621 37.5158Z" fill="#E1EBF0"/>
<path d="M23.8338 22.3207H17.7623C11.8974 22.3207 7.12598 27.0921 7.12598 32.957V34.4765H29.2134L23.8338 22.3207Z" fill="#FF415B"/>
<path d="M22.8446 16.2425H5.08252V25.3595H22.8446C25.3582 25.3595 27.4032 23.3146 27.4032 20.801C27.4032 18.2875 25.3582 16.2425 22.8446 16.2425Z" fill="#E50058"/>
</svg>
