<svg width="37" height="37" viewBox="0 0 37 37" fill="none" xmlns="http://www.w3.org/2000/svg">
<path d="M18.5 36C28.165 36 36 28.165 36 18.5C36 8.83502 28.165 1 18.5 1C8.83502 1 1 8.83502 1 18.5C1 28.165 8.83502 36 18.5 36Z" fill="#5C9E31"/>
<path d="M19.3236 11.9015L20.9804 10.3699C21.7893 9.62266 23.0955 10.2517 23.0151 11.3494L22.8513 13.6003C22.8292 13.9048 22.9226 14.2065 23.1129 14.4452C23.3033 14.6839 23.5766 14.8422 23.8785 14.8883L26.109 15.2291C27.1977 15.3956 27.5202 16.8089 26.6113 17.4309L24.7502 18.7057C24.4983 18.8783 24.3206 19.1394 24.2526 19.4372C24.1847 19.7349 24.2314 20.0473 24.3836 20.3121L25.5073 22.2677C26.0558 23.2227 25.1518 24.3562 24.0988 24.0336L21.9425 23.3732C21.6503 23.2835 21.3351 23.3073 21.0598 23.4399C20.7845 23.5724 20.5692 23.8039 20.4571 24.0882L19.6287 26.1865C19.2243 27.2108 17.7746 27.2108 17.3702 26.1865L16.5418 24.0875C16.4295 23.8035 16.2144 23.5723 15.9392 23.4399C15.664 23.3075 15.349 23.2837 15.0571 23.3732L12.9 24.0336C11.847 24.3562 10.9438 23.2227 11.4923 22.2677L12.616 20.3121C12.7681 20.0473 12.8149 19.7349 12.7469 19.4372C12.679 19.1394 12.5013 18.8783 12.2493 18.7057L10.3882 17.4309C9.47936 16.8082 9.80191 15.3949 10.8906 15.2291L13.1204 14.8883C13.4224 14.8423 13.6959 14.6842 13.8864 14.4454C14.0769 14.2067 14.1704 13.9049 14.1482 13.6003L13.9838 11.3501C13.904 10.2517 15.2103 9.62266 16.0191 10.3706L17.6759 11.9015C18.1412 12.3311 18.8584 12.3311 19.3236 11.9015Z" fill="#B1CC33"/>
<path d="M18.5 36C28.165 36 36 28.165 36 18.5C36 8.83502 28.165 1 18.5 1C8.83502 1 1 8.83502 1 18.5C1 28.165 8.83502 36 18.5 36Z" stroke="black" stroke-width="2" stroke-miterlimit="10" stroke-linecap="round" stroke-linejoin="round"/>
<path d="M19.3234 11.9015L20.9802 10.3699C21.789 9.62266 23.0953 10.2517 23.0148 11.3494L22.8511 13.6003C22.8289 13.9048 22.9223 14.2065 23.1127 14.4452C23.3031 14.6839 23.5764 14.8422 23.8782 14.8883L26.1087 15.2291C27.1974 15.3956 27.52 16.8089 26.6111 17.4309L24.75 18.7057C24.498 18.8783 24.3203 19.1394 24.2524 19.4372C24.1844 19.7349 24.2312 20.0473 24.3834 20.3121L25.507 22.2677C26.0556 23.2227 25.1516 24.3562 24.0986 24.0336L21.9422 23.3732C21.6501 23.2835 21.3349 23.3073 21.0595 23.4399C20.7842 23.5724 20.569 23.8039 20.4569 24.0882L19.6284 26.1865C19.224 27.2108 17.7743 27.2108 17.3699 26.1865L16.5415 24.0875C16.4293 23.8035 16.2141 23.5723 15.9389 23.4399C15.6638 23.3075 15.3488 23.2837 15.0568 23.3732L12.8998 24.0336C11.8468 24.3562 10.9435 23.2227 11.4921 22.2677L12.6157 20.3121C12.7679 20.0473 12.8147 19.7349 12.7467 19.4372C12.6787 19.1394 12.5011 18.8783 12.2491 18.7057L10.388 17.4309C9.47912 16.8082 9.80166 15.3949 10.8903 15.2291L13.1202 14.8883C13.4221 14.8423 13.6956 14.6842 13.8861 14.4454C14.0766 14.2067 14.1701 13.9049 14.148 13.6003L13.9836 11.3501C13.9038 10.2517 15.2101 9.62266 16.0189 10.3706L17.6757 11.9015C18.141 12.3311 18.8581 12.3311 19.3234 11.9015V11.9015Z" stroke="black" stroke-width="2" stroke-miterlimit="10" stroke-linecap="round" stroke-linejoin="round"/>
<path d="M11.0975 11.9094C11.3319 11.6452 11.0938 11.0512 10.5658 10.5827C10.0377 10.1141 9.41958 9.94841 9.18518 10.2126C8.95077 10.4768 9.18883 11.0708 9.71689 11.5393C10.245 12.0079 10.8631 12.1736 11.0975 11.9094Z" fill="black"/>
<path d="M18.4308 8.0862C18.7839 8.0862 19.0702 7.51389 19.0702 6.80791C19.0702 6.10193 18.7839 5.52962 18.4308 5.52962C18.0776 5.52962 17.7913 6.10193 17.7913 6.80791C17.7913 7.51389 18.0776 8.0862 18.4308 8.0862Z" fill="black"/>
<path d="M27.3 11.5896C27.7992 11.0904 28.0014 10.4833 27.7516 10.2335C27.5019 9.9838 26.8948 10.186 26.3956 10.6853C25.8964 11.1845 25.6942 11.7916 25.9439 12.0413C26.1936 12.2911 26.8008 12.0888 27.3 11.5896Z" fill="black"/>
<path d="M30.0363 20.2803C30.0754 19.9293 29.5384 19.5813 28.8368 19.503C28.1352 19.4247 27.5346 19.6458 27.4955 19.9968C27.4563 20.3478 27.9933 20.6958 28.695 20.7741C29.3966 20.8524 29.9971 20.6313 30.0363 20.2803Z" fill="black"/>
<path d="M8.23947 20.6976C8.94545 20.6976 9.51775 20.4113 9.51775 20.0582C9.51775 19.705 8.94545 19.4187 8.23947 19.4187C7.53349 19.4187 6.96118 19.705 6.96118 20.0582C6.96118 20.4113 7.53349 20.6976 8.23947 20.6976Z" fill="black"/>
<path d="M14.3239 27.8754C14.6769 27.264 14.7151 26.6252 14.4093 26.4486C14.1034 26.272 13.5693 26.6245 13.2163 27.2359C12.8633 27.8473 12.8251 28.4861 13.131 28.6627C13.4368 28.8393 13.9709 28.4868 14.3239 27.8754Z" fill="black"/>
<path d="M23.9397 28.7041C24.2512 28.5376 24.234 27.8979 23.9014 27.2753C23.5687 26.6526 23.0464 26.2827 22.7349 26.4492C22.4234 26.6156 22.4406 27.2553 22.7733 27.878C23.106 28.5007 23.6282 28.8705 23.9397 28.7041Z" fill="black"/>
</svg>
