<svg width="37" height="39" viewBox="0 0 37 39" fill="none" xmlns="http://www.w3.org/2000/svg">
<path d="M33.0936 16.1189L35.6258 34.2829C35.6258 35.0021 35.3402 35.6919 34.8317 36.2005C34.3232 36.7092 33.6335 36.995 32.9143 36.9952H18.6483L18.295 34.9227C18.2747 34.8036 18.2836 34.6814 18.3211 34.5665C18.3586 34.4517 18.4234 34.3477 18.5101 34.2635L20.5026 32.3238C20.6021 32.2267 20.6725 32.1038 20.7058 31.9689C20.7391 31.8339 20.734 31.6924 20.6912 31.5602C20.6483 31.428 20.5693 31.3104 20.4631 31.2207C20.357 31.131 20.2278 31.0728 20.0903 31.0526L17.3392 30.6504C17.1747 30.6262 17.0228 30.5481 16.9074 30.4283L17.0278 30.4151L19.8193 27.6982C19.9589 27.5624 20.0577 27.3902 20.1046 27.2012C20.1514 27.0122 20.1444 26.8138 20.0844 26.6285C20.0244 26.4433 19.9137 26.2785 19.7649 26.1529C19.6161 26.0272 19.4351 25.9457 19.2424 25.9176L15.8459 25.4214L17.1427 16.1189C17.1928 15.7997 17.3553 15.5089 17.6009 15.2989C17.8465 15.0889 18.159 14.9735 18.4822 14.9736H31.7542C32.0773 14.9735 32.3898 15.0889 32.6354 15.2989C32.881 15.5089 33.0435 15.7997 33.0936 16.1189Z" fill="#3090FC"/>
<path d="M20.8116 14.9736H18.4821C18.159 14.9735 17.8464 15.0889 17.6008 15.2989C17.3552 15.5089 17.1927 15.7997 17.1426 16.1189L14.0669 36.9952H16.3964L19.4721 16.1189C19.5223 15.7997 19.6848 15.5089 19.9304 15.2989C20.1759 15.0889 20.4885 14.9735 20.8116 14.9736Z" fill="#49BDFF"/>
<path d="M20.5025 32.3238C20.6019 32.2267 20.6723 32.1038 20.7056 31.9689C20.7389 31.8339 20.7339 31.6924 20.691 31.5602C20.6481 31.428 20.5691 31.3104 20.463 31.2207C20.3568 31.131 20.2276 31.0728 20.0901 31.0526L17.339 30.6504C17.1745 30.6262 17.0227 30.5481 16.9073 30.4283L15.5499 27.7478C15.4884 27.6232 15.3932 27.5183 15.2752 27.4449C15.1572 27.3715 15.021 27.3326 14.882 27.3325C14.743 27.3324 14.6068 27.3712 14.4886 27.4445C14.3705 27.5177 14.2753 27.6225 14.2136 27.7471L12.9805 30.2396C12.927 30.3478 12.848 30.4414 12.7504 30.5123C12.6527 30.5832 12.5393 30.6292 12.4198 30.6465L9.66714 31.0441C9.5295 31.064 9.40019 31.1221 9.29381 31.2117C9.18744 31.3013 9.10825 31.4188 9.06519 31.5511C9.02213 31.6833 9.01693 31.8249 9.05016 31.96C9.0834 32.095 9.15375 32.2181 9.25326 32.3152L11.2434 34.2573C11.3298 34.3418 11.3944 34.446 11.4316 34.561C11.4688 34.6759 11.4775 34.7982 11.457 34.9173L10.9849 37.6576C10.9612 37.7946 10.9763 37.9354 11.0286 38.0643C11.0808 38.1931 11.1681 38.3047 11.2805 38.3865C11.3929 38.4683 11.526 38.5169 11.6646 38.527C11.8032 38.5371 11.9419 38.5081 12.065 38.4434L14.5273 37.1521C14.6342 37.0959 14.7532 37.0665 14.874 37.0665C14.9948 37.0665 15.1138 37.0959 15.2207 37.1521L17.6807 38.4481C17.8036 38.513 17.9423 38.5421 18.081 38.5323C18.2197 38.5224 18.3528 38.474 18.4654 38.3924C18.578 38.3107 18.6654 38.1992 18.7179 38.0705C18.7704 37.9417 18.7858 37.8008 18.7623 37.6638L18.6482 36.9952L18.2949 34.9227C18.2745 34.8036 18.2834 34.6814 18.3209 34.5665C18.3584 34.4517 18.4233 34.3477 18.51 34.2635L20.5025 32.3238Z" fill="#50DD5A"/>
<path d="M19.2424 25.9176C19.4351 25.9457 19.6161 26.0272 19.7649 26.1528C19.9137 26.2785 20.0244 26.4433 20.0844 26.6285C20.1445 26.8138 20.1514 27.0122 20.1046 27.2012C20.0577 27.3902 19.9589 27.5624 19.8193 27.6981L17.0278 30.4151L16.9074 30.4283C16.8555 30.3732 16.8121 30.3107 16.7785 30.2428L15.5501 27.7478C15.4886 27.6232 15.3934 27.5183 15.2754 27.4449C15.1574 27.3715 15.0212 27.3326 14.8822 27.3325C14.7432 27.3324 14.6069 27.3712 14.4888 27.4445C14.3707 27.5177 14.2754 27.6225 14.2138 27.7471L12.9807 30.2396C12.9272 30.3478 12.8482 30.4414 12.7506 30.5123C12.6529 30.5832 12.5395 30.6292 12.42 30.6465L9.66733 31.0441C9.52969 31.064 9.40038 31.1221 9.294 31.2117C9.18763 31.3013 9.10844 31.4188 9.06538 31.5511C9.02232 31.6833 9.01712 31.8249 9.05035 31.96C9.08359 32.095 9.15394 32.2181 9.25345 32.3152L11.2436 34.2573C11.3104 34.3228 11.3644 34.4002 11.4028 34.4856L7.9994 36.2715C7.8269 36.3619 7.63257 36.4022 7.43836 36.388C7.24415 36.3737 7.05781 36.3054 6.90038 36.1908C6.74295 36.0761 6.62071 35.9198 6.54749 35.7393C6.47426 35.5589 6.45296 35.3616 6.48599 35.1697L6.59392 34.5438L7.14757 31.3306C7.17632 31.1638 7.16406 30.9926 7.11184 30.8316C7.05962 30.6706 6.96902 30.5247 6.84784 30.4066L4.06097 27.6857C3.9216 27.5497 3.82308 27.3773 3.77655 27.1882C3.73003 26.9991 3.73735 26.8007 3.79771 26.6155C3.85806 26.4303 3.96903 26.2657 4.11806 26.1404C4.2671 26.015 4.44825 25.9338 4.64102 25.906L8.49636 25.3485C8.66374 25.3243 8.82274 25.2598 8.95964 25.1605C9.09654 25.0612 9.20724 24.9301 9.28218 24.7785L11.0091 21.2866C11.0954 21.1119 11.2289 20.9649 11.3944 20.8622C11.5599 20.7594 11.7509 20.7051 11.9457 20.7052C12.1405 20.7054 12.3314 20.7601 12.4967 20.8631C12.662 20.9661 12.7953 21.1133 12.8813 21.2881L14.6028 24.7824C14.6774 24.9342 14.7879 25.0656 14.9247 25.1652C15.0614 25.2648 15.2204 25.3295 15.3878 25.3539L15.846 25.4214L19.2424 25.9176Z" fill="#FFFD54"/>
<path d="M18.3368 8.28789H20.9062C21.2916 8.28787 21.6642 8.42547 21.9571 8.67589C22.2499 8.92632 22.4437 9.27311 22.5035 9.65376L23.2451 14.9736H18.482C18.1589 14.9735 17.8463 15.0889 17.6008 15.2989C17.3552 15.5089 17.1927 15.7997 17.1425 16.1189L15.8458 25.4214L15.3876 25.3539C15.2202 25.3295 15.0612 25.2648 14.9245 25.1652C14.7877 25.0656 14.6772 24.9342 14.6026 24.7824L12.8811 21.2881C12.7951 21.1133 12.6619 20.9661 12.4965 20.8631C12.3312 20.7601 12.1403 20.7054 11.9455 20.7052C11.7507 20.7051 11.5597 20.7594 11.3942 20.8622C11.2287 20.9649 11.0952 21.1119 11.0089 21.2866L9.28199 24.7785C9.20705 24.9301 9.09636 25.0612 8.95946 25.1605C8.82256 25.2598 8.66356 25.3243 8.49617 25.3484L4.64083 25.906C4.44806 25.9338 4.26691 26.015 4.11788 26.1404C3.96885 26.2657 3.85788 26.4303 3.79752 26.6155C3.73717 26.8007 3.72984 26.9991 3.77637 27.1882C3.82289 27.3773 3.92141 27.5497 4.06079 27.6857L6.84766 30.4066C6.96883 30.5247 7.05944 30.6706 7.11166 30.8316C7.16388 30.9926 7.17614 31.1638 7.14739 31.3306L6.59374 34.5438H3.69894C3.27437 34.5439 2.85396 34.4603 2.46169 34.2979C2.06942 34.1355 1.71299 33.8974 1.41274 33.5972C1.1125 33.297 0.874315 32.9406 0.711799 32.5484C0.549284 32.1562 0.465617 31.7358 0.465576 31.3112L3.48462 9.65376C3.54423 9.27316 3.73785 8.92638 4.03058 8.67594C4.3233 8.4255 4.69587 8.28788 5.08111 8.28789H18.3368Z" fill="#E04A5D"/>
<path d="M2.79509 31.3112L5.81413 9.65376C5.87374 9.27316 6.06736 8.92638 6.36009 8.67594C6.65281 8.4255 7.02538 8.28788 7.41062 8.28789H5.08111C4.69587 8.28788 4.3233 8.4255 4.03058 8.67594C3.73785 8.92638 3.54423 9.27316 3.48462 9.65376L0.465576 31.3112C0.465617 31.7358 0.549284 32.1562 0.711799 32.5484C0.874315 32.9406 1.1125 33.297 1.41274 33.5972C1.71299 33.8974 2.06942 34.1355 2.46169 34.2979C2.85396 34.4603 3.27437 34.5439 3.69894 34.5438H6.02845C5.60388 34.5439 5.18347 34.4603 4.7912 34.2979C4.39893 34.1355 4.0425 33.8974 3.74225 33.5972C3.44201 33.297 3.20382 32.9406 3.04131 32.5484C2.87879 32.1562 2.79513 31.7358 2.79509 31.3112Z" fill="#FF5A5A"/>
<path d="M33.5551 16.0546L33.554 16.0469C33.4884 15.6172 33.2706 15.2253 32.9402 14.9428C32.6099 14.6602 32.189 14.5058 31.7543 14.5076H23.6505L22.9649 9.58939L22.9638 9.58162C22.8888 9.09039 22.6398 8.64246 22.2622 8.31946C21.8845 7.99646 21.4034 7.81991 20.9065 7.82199H18.8027V5.82995C18.8055 5.06536 18.6573 4.30773 18.3667 3.60054C18.076 2.89334 17.6486 2.25049 17.1089 1.70885C16.5693 1.16721 15.928 0.73744 15.2218 0.444196C14.5157 0.150951 13.7586 0 12.994 0C12.2294 0 11.4724 0.150951 10.7662 0.444196C10.0601 0.73744 9.41883 1.16721 8.87917 1.70885C8.3395 2.25049 7.91208 2.89334 7.62142 3.60054C7.33076 4.30773 7.18258 5.06536 7.18537 5.82995V7.82168H5.08152C4.58461 7.81962 4.10351 7.99616 3.72589 8.31914C3.34826 8.64212 3.09926 9.09002 3.02425 9.58124L3.02308 9.589L0.00442601 31.2467C0.001476 31.268 -2.79344e-06 31.2895 3.96136e-09 31.311C0.00108927 32.2917 0.391138 33.2319 1.08457 33.9253C1.77801 34.6188 2.7182 35.0088 3.69887 35.0099H6.04096L6.02706 35.0906C5.97845 35.3684 6.00871 35.6542 6.11441 35.9157C6.2201 36.1771 6.397 36.4036 6.625 36.5696C6.853 36.7355 7.12297 36.8342 7.40424 36.8544C7.68551 36.8746 7.96681 36.8155 8.21618 36.6838L10.9249 35.2628L10.5258 37.5785C10.4876 37.8012 10.5124 38.0301 10.5974 38.2394C10.6824 38.4487 10.8243 38.63 11.0069 38.7629C11.1896 38.8959 11.4057 38.9751 11.631 38.9916C11.8563 39.0081 12.0818 38.9613 12.2819 38.8565L14.7442 37.5645C14.7842 37.5434 14.8288 37.5324 14.8741 37.5324C14.9193 37.5324 14.9639 37.5434 15.004 37.5645L17.4643 38.8605C17.6642 38.9658 17.8896 39.013 18.1149 38.9969C18.3403 38.9808 18.5567 38.902 18.7396 38.7693C18.9225 38.6366 19.0646 38.4554 19.1499 38.2462C19.2352 38.0369 19.2602 37.808 19.2222 37.5853L19.201 37.4607H32.914C33.7565 37.4597 34.5641 37.1246 35.1598 36.5289C35.7555 35.9332 36.0905 35.1256 36.0915 34.2831C36.0915 34.2616 36.09 34.2401 36.0871 34.2188L33.5551 16.0546ZM8.11718 5.82995C8.11462 5.18787 8.23887 4.55161 8.48281 3.95767C8.72674 3.36373 9.08557 2.82381 9.53868 2.36888C9.99179 1.91396 10.5303 1.55298 11.1232 1.30668C11.7162 1.06037 12.352 0.933582 12.994 0.933582C13.6361 0.933582 14.2719 1.06037 14.8649 1.30668C15.4578 1.55298 15.9963 1.91396 16.4494 2.36888C16.9025 2.82381 17.2613 3.36373 17.5053 3.95767C17.7492 4.55161 17.8735 5.18787 17.8709 5.82995V7.82168H8.11718V5.82995ZM6.68841 31.2517L6.20131 34.0782H3.69887C2.97054 34.0775 2.2718 33.7899 1.75389 33.2779C1.23597 32.7658 0.940553 32.0703 0.931571 31.342L3.94534 9.72209C3.98757 9.45144 4.12542 9.20489 4.33388 9.02718C4.54234 8.84947 4.80759 8.75236 5.08152 8.75348H7.18537V11.8138C7.18537 11.9374 7.23446 12.0559 7.32183 12.1433C7.40921 12.2307 7.52771 12.2797 7.65128 12.2797C7.77484 12.2797 7.89334 12.2307 7.98072 12.1433C8.06809 12.0559 8.11718 11.9374 8.11718 11.8138V8.75348H17.8709V11.8138C17.8709 11.9374 17.92 12.0559 18.0074 12.1433C18.0947 12.2307 18.2132 12.2797 18.3368 12.2797C18.4604 12.2797 18.5789 12.2307 18.6663 12.1433C18.7536 12.0559 18.8027 11.9374 18.8027 11.8138V8.75348H20.9065C21.1804 8.75233 21.4457 8.84942 21.6542 9.02714C21.8626 9.20486 22.0005 9.45143 22.0427 9.72209L22.7097 14.5075H18.4818C18.0471 14.5057 17.6262 14.6601 17.2959 14.9426C16.9655 15.2252 16.7477 15.617 16.682 16.0467L16.6809 16.0545L15.4492 24.8919C15.3576 24.8775 15.2709 24.8414 15.1963 24.7865C15.1216 24.7317 15.0613 24.6596 15.0204 24.5765L13.2992 21.0823C13.1756 20.8289 12.9831 20.6154 12.7438 20.4664C12.5045 20.3173 12.228 20.2387 11.9461 20.2395H11.9449C11.6632 20.2384 11.3868 20.3167 11.1475 20.4653C10.9082 20.614 10.7156 20.827 10.5917 21.08L8.86487 24.5719C8.82333 24.6559 8.76199 24.7285 8.68614 24.7835C8.61029 24.8385 8.52221 24.8742 8.42949 24.8876L4.57415 25.4447C4.29536 25.485 4.03342 25.6025 3.81793 25.7839C3.60243 25.9653 3.44199 26.2034 3.35474 26.4712C3.2675 26.739 3.25692 27.0259 3.32421 27.2994C3.3915 27.573 3.53398 27.8222 3.73552 28.019L6.52317 30.7404C6.59007 30.8059 6.64005 30.8866 6.66882 30.9757C6.69759 31.0648 6.70429 31.1595 6.68833 31.2517H6.68841ZM7.78328 35.8587C7.6878 35.9088 7.58022 35.9312 7.47268 35.9233C7.36515 35.9155 7.26196 35.8777 7.17479 35.8142C7.08761 35.7508 7.01993 35.6642 6.9794 35.5643C6.93887 35.4644 6.9271 35.3551 6.94543 35.2489L7.60702 31.41C7.64861 31.1688 7.63092 30.9211 7.55546 30.6883C7.48 30.4555 7.34905 30.2445 7.17388 30.0735L4.38631 27.3521C4.30917 27.2768 4.25464 27.1814 4.22889 27.0767C4.20314 26.972 4.2072 26.8622 4.2406 26.7597C4.27401 26.6571 4.33543 26.566 4.41792 26.4966C4.50041 26.4271 4.60068 26.3822 4.7074 26.3668L8.56281 25.8097C8.80504 25.7747 9.03513 25.6813 9.23324 25.5376C9.43136 25.3939 9.59155 25.2042 9.7 24.9848L11.4269 21.493C11.4736 21.3956 11.5472 21.3136 11.639 21.2566C11.7307 21.1996 11.8369 21.17 11.9449 21.1712H11.9453C12.0534 21.17 12.1596 21.1998 12.2514 21.2569C12.3431 21.3141 12.4166 21.3963 12.4632 21.4938L14.1844 24.9885C14.2926 25.208 14.4525 25.398 14.6504 25.542C14.8483 25.6861 15.0782 25.7799 15.3204 25.8153L19.1749 26.3785C19.2816 26.394 19.3819 26.4391 19.4643 26.5087C19.5468 26.5783 19.6081 26.6696 19.6413 26.7722C19.6746 26.8748 19.6784 26.9847 19.6525 27.0894C19.6265 27.1941 19.5718 27.2894 19.4944 27.3646L17.0512 29.7423L15.9678 27.5423C15.8686 27.3391 15.7142 27.168 15.5222 27.0485C15.3303 26.929 15.1086 26.866 14.8825 26.8667H14.8815C14.6555 26.8659 14.4338 26.9286 14.2419 27.0478C14.0499 27.1671 13.8954 27.3379 13.796 27.5408L12.5636 30.0331C12.5435 30.0737 12.5139 30.1087 12.4773 30.1353C12.4406 30.1619 12.3981 30.1791 12.3533 30.1856L9.60123 30.5832C9.37758 30.6155 9.16743 30.7097 8.99453 30.8552C8.82164 31.0007 8.69291 31.1917 8.62291 31.4066C8.5529 31.6214 8.54441 31.8516 8.5984 32.071C8.65238 32.2904 8.76669 32.4904 8.92839 32.6482L10.6669 34.3456L7.78328 35.8587ZM17.836 35.0011L18.3038 37.7421C18.3126 37.7935 18.3068 37.8463 18.2872 37.8945C18.2675 37.9427 18.2347 37.9845 18.1926 38.0151C18.1504 38.0457 18.1005 38.0639 18.0486 38.0676C17.9966 38.0713 17.9446 38.0603 17.8986 38.036L15.4384 36.7402C15.2647 36.6487 15.0714 36.6007 14.875 36.6005C14.6786 36.6003 14.4852 36.6479 14.3113 36.7391L11.8485 38.0311C11.8024 38.0553 11.7504 38.066 11.6985 38.0622C11.6465 38.0584 11.5967 38.0402 11.5546 38.0095C11.5125 37.9789 11.4798 37.9371 11.4602 37.8888C11.4407 37.8406 11.435 37.7878 11.4438 37.7365L11.9161 34.9961C11.9494 34.8026 11.9352 34.6039 11.8747 34.4172C11.8141 34.2304 11.7091 34.0612 11.5687 33.924L9.57902 31.9814C9.54176 31.945 9.51542 31.8989 9.50299 31.8483C9.49057 31.7977 9.49254 31.7447 9.5087 31.6951C9.52486 31.6456 9.55456 31.6016 9.59443 31.5681C9.6343 31.5345 9.68276 31.5128 9.73432 31.5054L12.4863 31.1078C12.6807 31.0797 12.8653 31.0048 13.0242 30.8896C13.1831 30.7743 13.3117 30.6221 13.3986 30.446L14.6313 27.9535C14.6537 27.9063 14.6892 27.8665 14.7336 27.839C14.778 27.8114 14.8294 27.7973 14.8816 27.7982C14.9339 27.7973 14.9853 27.8116 15.0297 27.8392C15.074 27.8669 15.1095 27.9067 15.1318 27.954L16.3607 30.4487C16.4475 30.6248 16.5758 30.7771 16.7345 30.8927C16.8932 31.0082 17.0777 31.0834 17.2719 31.1118L20.0234 31.5138C20.0748 31.5215 20.1231 31.5434 20.1628 31.577C20.2026 31.6106 20.2321 31.6546 20.2481 31.7041C20.2642 31.7536 20.2661 31.8066 20.2536 31.8572C20.2412 31.9077 20.2149 31.9537 20.1777 31.9901L18.1849 33.9295C18.0443 34.0664 17.939 34.2355 17.8782 34.4222C17.8174 34.6089 17.803 34.8076 17.836 35.0011ZM32.9143 36.5289H19.0416L18.7543 34.8444C18.7467 34.7997 18.7501 34.7539 18.7641 34.7109C18.7782 34.6678 18.8024 34.6288 18.8349 34.5972L20.8274 32.6577C20.989 32.5 21.1033 32.3003 21.1575 32.0811C21.2116 31.8618 21.2034 31.6319 21.1338 31.4171C21.0641 31.2023 20.9359 31.0112 20.7634 30.8655C20.5909 30.7197 20.3812 30.625 20.1578 30.5922L17.8593 30.2563L20.1444 28.0324C20.3463 27.836 20.4892 27.587 20.557 27.3135C20.6247 27.0401 20.6146 26.7532 20.5277 26.4852C20.4409 26.2172 20.2808 25.9789 20.0656 25.7971C19.8503 25.6154 19.5885 25.4975 19.3098 25.4568L16.3713 25.0274L17.6031 16.188C17.6358 15.9788 17.7425 15.7883 17.9037 15.651C18.0649 15.5137 18.27 15.4387 18.4817 15.4396H31.7543C31.9661 15.4387 32.1711 15.5137 32.3323 15.651C32.4935 15.7883 32.6001 15.9788 32.6329 16.188L35.1598 34.314C35.1511 34.9041 34.9107 35.4671 34.4905 35.8814C34.0703 36.2958 33.5041 36.5284 32.914 36.5289H32.9143Z" fill="#284268"/>
<path d="M29.5992 17.7452C29.4756 17.7452 29.3571 17.7943 29.2698 17.8816C29.1824 17.969 29.1333 18.0875 29.1333 18.2111V20.8051C29.1286 21.8669 28.7036 22.8836 27.9511 23.6328C27.1986 24.382 26.18 24.8026 25.1181 24.8026C24.0563 24.8026 23.0377 24.382 22.2852 23.6328C21.5327 22.8836 21.1076 21.8669 21.1029 20.8051V18.2111C21.1029 18.0875 21.0539 17.969 20.9665 17.8816C20.8791 17.7943 20.7606 17.7452 20.637 17.7452C20.5135 17.7452 20.395 17.7943 20.3076 17.8816C20.2202 17.969 20.1711 18.0875 20.1711 18.2111V20.8051C20.1763 22.1137 20.6998 23.367 21.627 24.2905C22.5542 25.214 23.8095 25.7325 25.1181 25.7325C26.4268 25.7325 27.6821 25.214 28.6093 24.2905C29.5364 23.367 30.0599 22.1137 30.0651 20.8051V18.2111C30.0651 18.0875 30.016 17.969 29.9287 17.8816C29.8413 17.7943 29.7228 17.7452 29.5992 17.7452Z" fill="#284268"/>
</svg>
