<svg width="26" height="28" viewBox="0 0 26 28" fill="none" xmlns="http://www.w3.org/2000/svg">
<path d="M2.8 28H22.4C23.9442 28 25.2 26.7442 25.2 25.2V9.8C25.2 9.4287 25.0525 9.0726 24.79 8.81005C24.5274 8.5475 24.1713 8.4 23.8 8.4H19.6V7C19.6 3.1402 16.4598 0 12.6 0C8.7402 0 5.6 3.1402 5.6 7V8.4H1.4C1.0287 8.4 0.672601 8.5475 0.41005 8.81005C0.1475 9.0726 0 9.4287 0 9.8V25.2C0 26.7442 1.2558 28 2.8 28ZM8.4 7C8.4 4.6844 10.2844 2.8 12.6 2.8C14.9156 2.8 16.8 4.6844 16.8 7V8.4H8.4V7ZM2.8 11.2H5.6V14H8.4V11.2H16.8V14H19.6V11.2H22.4L22.4028 25.2H2.8V11.2Z" fill="white"/>
</svg>
