<svg width="51" height="30" viewBox="0 0 51 30" fill="none" xmlns="http://www.w3.org/2000/svg">
<path d="M48.2707 0.741249H2.3255C1.45054 0.741249 0.741211 1.45058 0.741211 2.32554V9.299C0.741211 9.69833 0.937567 10.0779 1.27721 10.2879C2.85597 11.2644 3.90989 13.0071 3.90989 15C3.90989 16.9929 2.85597 18.7357 1.27721 19.7122C0.937567 19.9222 0.741211 20.3018 0.741211 20.7011V27.6746C0.741211 28.5495 1.45054 29.2588 2.3255 29.2588H48.2706C49.1455 29.2588 49.8549 28.5495 49.8549 27.6746V2.32554C49.855 1.45048 49.1456 0.741249 48.2707 0.741249Z" fill="#FFC350"/>
<path d="M46.6862 26.8824H14.9999C14.5624 26.8824 14.2078 26.5278 14.2078 26.0903V3.90993C14.2078 3.47245 14.5624 3.11779 14.9999 3.11779H46.6862C47.1237 3.11779 47.4783 3.47245 47.4783 3.90993V26.0904C47.4784 26.5279 47.1238 26.8824 46.6862 26.8824Z" fill="#FFD164"/>
<path d="M30.1876 20.4743L26.0816 23.052C25.1767 23.6202 24.0412 22.7951 24.3019 21.759L25.4846 17.0574L21.7642 13.949C20.9443 13.264 21.3781 11.929 22.444 11.8568L27.281 11.5288L29.0876 7.02989C29.4858 6.03842 30.8894 6.03842 31.2876 7.02989L33.0942 11.5288L37.9312 11.8568C38.9971 11.929 39.431 13.264 38.611 13.949L34.8906 17.0574L36.0733 21.759C36.334 22.7951 35.1985 23.6202 34.2936 23.052L30.1876 20.4743Z" fill="white"/>
<path d="M35.5581 19.7111C30.4251 19.3974 26.0732 16.2199 24.0845 11.7456L22.4441 11.8568C21.3781 11.929 20.9443 13.264 21.7643 13.949L25.4847 17.0574L24.3019 21.759C24.0412 22.7951 25.1768 23.6202 26.0817 23.052L30.1876 20.4743L34.2935 23.052C35.1984 23.6202 36.334 22.7952 36.0733 21.759L35.5581 19.7111Z" fill="#FFF6D8"/>
<path d="M48.2706 0H2.32544C1.04325 0 0 1.04325 0 2.32554V9.299C0 9.95922 0.339942 10.5797 0.887309 10.9183C2.31586 11.8018 3.16868 13.3277 3.16868 15.0001C3.16868 16.6724 2.31586 18.1983 0.88721 19.0818C0.339942 19.4204 0 20.0409 0 20.7011V27.6746C0 28.9569 1.04325 30 2.32544 30H48.2706C49.5529 30 50.5961 28.9568 50.5961 27.6746V2.32554C50.5961 1.04325 49.5528 0 48.2706 0ZM49.1137 27.6746C49.1137 28.1395 48.7356 28.5177 48.2706 28.5177H11.7804V28.4667C11.7804 28.0574 11.4486 27.7256 11.0392 27.7256C10.6298 27.7256 10.2981 28.0574 10.2981 28.4667V28.5177H2.32544C1.86049 28.5177 1.48231 28.1394 1.48231 27.6746V20.7011C1.48231 20.5504 1.55316 20.4129 1.667 20.3425C3.5354 19.1869 4.65088 17.1897 4.65088 15.0001C4.65088 12.8104 3.5354 10.8132 1.667 9.65762C1.55316 9.58706 1.48231 9.4497 1.48231 9.2989V2.32544C1.48231 1.86049 1.86049 1.48231 2.32544 1.48231H10.2981V1.5333C10.2981 1.94261 10.6298 2.27445 11.0392 2.27445C11.4486 2.27445 11.7804 1.94261 11.7804 1.5333V1.48231H48.2706C48.7356 1.48231 49.1137 1.86059 49.1137 2.32544V27.6746Z" fill="black"/>
<path d="M11.0392 13.4668C10.6298 13.4668 10.2981 13.7986 10.2981 14.2079V15.7922C10.2981 16.2015 10.6298 16.5333 11.0392 16.5333C11.4487 16.5333 11.7804 16.2015 11.7804 15.7922V14.2079C11.7804 13.7986 11.4487 13.4668 11.0392 13.4668Z" fill="black"/>
<path d="M11.0392 3.96102C10.6298 3.96102 10.2981 4.29286 10.2981 4.70218V6.28647C10.2981 6.69578 10.6298 7.02762 11.0392 7.02762C11.4487 7.02762 11.7804 6.69578 11.7804 6.28647V4.70218C11.7804 4.29266 11.4487 3.96102 11.0392 3.96102Z" fill="black"/>
<path d="M11.0392 8.71378C10.6298 8.71378 10.2981 9.04562 10.2981 9.45494V11.0392C10.2981 11.4485 10.6298 11.7804 11.0392 11.7804C11.4487 11.7804 11.7804 11.4485 11.7804 11.0392V9.45494C11.7804 9.04562 11.4487 8.71378 11.0392 8.71378Z" fill="black"/>
<path d="M11.0392 18.2197C10.6298 18.2197 10.2981 18.5516 10.2981 18.9609V20.5452C10.2981 20.9545 10.6298 21.2863 11.0392 21.2863C11.4487 21.2863 11.7804 20.9545 11.7804 20.5452V18.9609C11.7804 18.5515 11.4487 18.2197 11.0392 18.2197Z" fill="black"/>
<path d="M11.0392 22.9726C10.6298 22.9726 10.2981 23.3044 10.2981 23.7137V25.298C10.2981 25.7073 10.6298 26.0392 11.0392 26.0392C11.4487 26.0392 11.7804 25.7073 11.7804 25.298V23.7137C11.7804 23.3044 11.4487 22.9726 11.0392 22.9726Z" fill="black"/>
<path d="M37.9814 11.1174L33.6086 10.8209L31.9755 6.75388C31.6806 6.01964 30.9789 5.5453 30.1877 5.5453C29.3964 5.5453 28.6948 6.01974 28.4 6.75388L26.7668 10.8209L22.394 11.1174C21.6047 11.171 20.9367 11.6917 20.6922 12.4442C20.4476 13.1967 20.6819 14.0107 21.2892 14.5179L24.6525 17.3281L23.5832 21.5784C23.3902 22.3457 23.6791 23.142 24.3191 23.6069C24.9592 24.0719 25.8057 24.1006 26.4758 23.6799L30.1878 21.3496L33.8997 23.6798C34.2155 23.8782 34.5704 23.9766 34.9246 23.9766C35.3218 23.9766 35.7179 23.8528 36.0563 23.6069C36.6965 23.1419 36.9852 22.3456 36.7922 21.5783L35.723 17.328L39.0862 14.5179C39.6935 14.0107 39.9278 13.1967 39.6833 12.4443C39.4388 11.6916 38.7707 11.1708 37.9814 11.1174ZM38.1358 13.3803L34.4155 16.4888C34.1972 16.6712 34.1025 16.9624 34.1719 17.2383L35.3547 21.9399C35.4208 22.2028 35.258 22.3546 35.185 22.4076C35.1119 22.4607 34.9171 22.5684 34.6877 22.4244L30.5818 19.8467C30.3408 19.6955 30.0346 19.6955 29.7937 19.8467L25.6876 22.4244C25.4579 22.5686 25.2632 22.4607 25.1903 22.4076C25.1173 22.3546 24.9545 22.2028 25.0206 21.94L26.2035 17.2384C26.2729 16.9625 26.1783 16.6712 25.9599 16.4889L22.2395 13.3804C22.0316 13.2066 22.074 12.9881 22.1019 12.9022C22.1297 12.8163 22.2238 12.6146 22.4943 12.5963L27.3313 12.2684C27.6151 12.2491 27.8628 12.069 27.9689 11.8051L29.7755 7.30618C29.8764 7.05479 30.0973 7.02761 30.1876 7.02761C30.2779 7.02761 30.4989 7.05478 30.5998 7.30628L32.4064 11.8051C32.5124 12.069 32.7602 12.2491 33.044 12.2684L37.8809 12.5963C38.1513 12.6147 38.2454 12.8164 38.2734 12.9023C38.3014 12.9882 38.3438 13.2065 38.1358 13.3803Z" fill="black"/>
</svg>
