<svg width="25" height="28" viewBox="0 0 25 28" fill="none" xmlns="http://www.w3.org/2000/svg">
<path d="M23.8585 18.4897L21.406 15.9558V9.71219C21.4387 7.39368 20.6537 5.14134 19.1962 3.37104C17.7387 1.60075 15.707 0.432059 13.4763 0.0807709C12.1816 -0.0944045 10.8655 0.0161157 9.61574 0.404957C8.36597 0.793798 7.21128 1.45202 6.22872 2.3357C5.24615 3.21938 4.45831 4.3082 3.91775 5.52951C3.37719 6.75083 3.09635 8.07654 3.09397 9.41821V15.9558L0.641461 18.4897C0.333407 18.8115 0.124505 19.2194 0.0408697 19.6625C-0.0427653 20.1056 0.00257788 20.5642 0.171231 20.981C0.339883 21.3978 0.624363 21.7542 0.989105 22.0058C1.35385 22.2574 1.78267 22.3929 2.22197 22.3954H6.79998V22.8714C6.86362 24.2926 7.47299 25.6299 8.49456 26.5903C9.51613 27.5507 10.8666 28.0559 12.25 27.9951C13.6334 28.0559 14.9839 27.5507 16.0054 26.5903C17.027 25.6299 17.6364 24.2926 17.7 22.8714V22.3954H22.278C22.7173 22.3929 23.1461 22.2574 23.5109 22.0058C23.8756 21.7542 24.1601 21.3978 24.3288 20.981C24.4974 20.5642 24.5428 20.1056 24.4591 19.6625C24.3755 19.2194 24.1666 18.8115 23.8585 18.4897ZM14.975 22.8714C14.8994 23.5448 14.5739 24.1622 14.0663 24.5951C13.5587 25.028 12.9081 25.243 12.25 25.1953C11.5919 25.243 10.9413 25.028 10.4337 24.5951C9.92605 24.1622 9.60055 23.5448 9.52499 22.8714V22.3954H14.975V22.8714ZM3.40735 19.5956L5.0151 17.9437C5.27012 17.6832 5.47244 17.3735 5.61041 17.0323C5.74838 16.6911 5.81926 16.3253 5.81898 15.9558V9.41821C5.81972 8.47383 6.01706 7.54053 6.39776 6.68097C6.77846 5.8214 7.33371 5.05544 8.02624 4.43451C8.70942 3.7985 9.51896 3.32263 10.3988 3.03982C11.2787 2.75701 12.2078 2.67402 13.122 2.79661C14.6977 3.05948 16.128 3.89836 17.1494 5.1588C18.1709 6.41924 18.7148 8.01638 18.681 9.65619V15.9558C18.6789 16.3243 18.7477 16.6896 18.8833 17.0307C19.0189 17.3718 19.2187 17.6821 19.4713 17.9437L21.0927 19.5956H3.40735Z" fill="white"/>
</svg>
