<svg width="28" height="28" viewBox="0 0 28 28" fill="none" xmlns="http://www.w3.org/2000/svg">
<path d="M14 0C15.8958 0 17.7083 0.369792 19.4375 1.10938C21.1667 1.84896 22.6562 2.84375 23.9062 4.09375C25.1562 5.34375 26.151 6.83333 26.8906 8.5625C27.6302 10.2917 28 12.1042 28 14C28 15.8854 27.6328 17.6927 26.8984 19.4219C26.1641 21.151 25.1719 22.6406 23.9219 23.8906C22.6719 25.1406 21.1823 26.138 19.4531 26.8828C17.724 27.6276 15.9062 28 14 28C12.0938 28 10.276 27.6302 8.54688 26.8906C6.81771 26.151 5.33073 25.1536 4.08594 23.8984C2.84115 22.6432 1.84896 21.1536 1.10938 19.4297C0.369792 17.7057 0 15.8958 0 14C0 12.1042 0.369792 10.2917 1.10938 8.5625C1.84896 6.83333 2.84375 5.34375 4.09375 4.09375C5.34375 2.84375 6.83333 1.84896 8.5625 1.10938C10.2917 0.369792 12.1042 0 14 0ZM23.6719 21.1094C25.224 18.974 26 16.6042 26 14C26 12.375 25.6823 10.8229 25.0469 9.34375C24.4115 7.86458 23.5573 6.58854 22.4844 5.51562C21.4115 4.44271 20.1354 3.58854 18.6562 2.95312C17.1771 2.31771 15.625 2 14 2C12.375 2 10.8229 2.31771 9.34375 2.95312C7.86458 3.58854 6.58854 4.44271 5.51562 5.51562C4.44271 6.58854 3.58854 7.86458 2.95312 9.34375C2.31771 10.8229 2 12.375 2 14C2 16.6042 2.77604 18.974 4.32812 21.1094C5.01562 17.7031 6.60938 16 9.10938 16C10.474 17.3333 12.1042 18 14 18C15.8958 18 17.526 17.3333 18.8906 16C21.3906 16 22.9844 17.7031 23.6719 21.1094ZM20 11C20 9.34375 19.4141 7.92969 18.2422 6.75781C17.0703 5.58594 15.6562 5 14 5C12.3438 5 10.9297 5.58594 9.75781 6.75781C8.58594 7.92969 8 9.34375 8 11C8 12.6562 8.58594 14.0703 9.75781 15.2422C10.9297 16.4141 12.3438 17 14 17C15.6562 17 17.0703 16.4141 18.2422 15.2422C19.4141 14.0703 20 12.6562 20 11Z" fill="white"/>
</svg>
