<svg width="43" height="41" viewBox="0 0 43 41" fill="none" xmlns="http://www.w3.org/2000/svg">
<path d="M38.3056 27.3353C38.3056 28.6979 37.2005 29.8031 35.8378 29.8031H9.0012C7.63849 29.8031 6.53345 28.698 6.53345 27.3353V3.18366C6.53345 1.82104 7.63849 0.715908 9.0012 0.715908H35.8378C37.2004 0.715908 38.3056 1.82104 38.3056 3.18366V27.3353Z" fill="#FFAA64"/>
<path d="M38.3056 3.18366C38.3056 4.37624 37.3388 5.34291 36.1463 5.34291H22.728C16.3395 5.34291 11.1605 10.5219 11.1605 16.9105V27.6438C11.1605 28.8364 10.1937 29.8031 9.0012 29.8031C7.63831 29.8031 6.53345 28.6983 6.53345 27.3353V3.18366C6.53345 1.82077 7.63831 0.715908 9.0012 0.715908H35.8378C37.2007 0.715908 38.3056 1.82077 38.3056 3.18366Z" fill="#FFBD7B"/>
<path d="M27.3041 0.715908V8.30112C27.3041 9.23191 26.3132 9.82726 25.4912 9.39077L23.0427 8.08981C22.6803 7.89775 22.2469 7.89775 21.8844 8.08981L19.436 9.39077C18.614 9.82726 17.623 9.23191 17.623 8.30112V0.715908H27.3041Z" fill="#E8F8FC"/>
<path d="M27.3041 5.34291V8.30112C27.3041 9.23191 26.3132 9.82726 25.4912 9.39077L23.0427 8.08981C22.6803 7.89775 22.2469 7.89775 21.8844 8.08981L19.436 9.39077C18.614 9.82726 17.623 9.23191 17.623 8.30112V6.52743C19.1623 5.76938 20.8958 5.34291 22.7282 5.34291H27.3041Z" fill="#D6F4FC"/>
<path d="M41.6457 23.9749C42.6785 25.2842 42.427 27.1879 41.0881 28.1822L29.1355 37.0668C28.1316 37.813 26.914 38.216 25.6632 38.216C24.9155 38.216 7.72674 38.216 6.53345 38.216V24.5915H6.58267L13.0687 20.863C13.9968 20.3287 15.0502 20.0477 16.1215 20.0477H22.6128C26.5804 20.0477 27.3453 25.7589 23.6519 26.9328L19.8714 28.1338C19.0918 28.3815 19.27 29.532 20.088 29.5322L28.7641 29.5346C29.4147 29.5346 30.0466 29.3162 30.5585 28.9152L37.4992 23.4791C38.7901 22.4694 40.6401 22.701 41.6457 23.9749Z" fill="#FFEBD2"/>
<path d="M22.9202 20.0594C25.065 20.2256 24.8762 23.4649 22.7257 23.4054C22.6373 23.403 23.0501 23.4039 16.1215 23.4039C15.0502 23.4039 13.9968 23.6849 13.0687 24.2192L6.58267 27.9477H6.53345V24.5915H6.58267L13.0687 20.863C13.9968 20.3287 15.0502 20.0477 16.1215 20.0477C23.1764 20.0477 22.7029 20.0426 22.9202 20.0594Z" fill="#FFF3E4"/>
<path d="M6.53349 38.5149C6.53349 39.3875 5.82556 40.0954 4.95294 40.0954H2.32704C1.43743 40.0954 0.716064 39.3741 0.716064 38.4845C0.716064 37.9814 0.716064 24.5561 0.716064 23.9552C0.716064 23.0826 1.424 22.3746 2.29662 22.3746H4.95294C5.82556 22.3746 6.53349 23.0826 6.53349 23.9552V38.5149Z" fill="#FE4F60"/>
<path d="M38.855 25.0758L32.135 30.5117C31.4369 31.0764 30.5662 31.3845 29.6683 31.3845H20.5537C19.6423 31.3845 18.9723 30.3512 19.6512 29.3923C19.7649 29.4784 19.9116 29.5318 20.088 29.5318L28.764 29.5345C29.4147 29.5345 30.0465 29.3161 30.5585 28.9151C37.9931 23.0923 37.5261 23.4558 37.6115 23.3952C38.7013 22.6221 39.8938 24.2355 38.855 25.0758Z" fill="#FFF3E4"/>
<path d="M6.53349 23.9552C6.53349 24.6204 6.02183 25.0596 5.45951 25.0596C4.3226 25.0596 3.40103 25.9812 3.40103 27.1181V39.0214C3.40103 39.6146 2.92015 40.0954 2.32704 40.0954C1.43734 40.0954 0.716064 39.3742 0.716064 38.4845V23.9552C0.716064 23.0823 1.42373 22.3746 2.29662 22.3746H4.95294C5.82583 22.3746 6.53349 23.0823 6.53349 23.9552Z" fill="#FF6D7A"/>
<path d="M7.24941 25.0346V38.5148C7.24941 39.7811 6.21919 40.8114 4.95278 40.8114H3.31146C2.91605 40.8114 2.59547 40.4908 2.59547 40.0954C2.59547 39.7 2.91605 39.3794 3.31146 39.3794H4.95278C5.42954 39.3794 5.81743 38.9916 5.81743 38.5148V23.9553C5.81743 23.4785 5.42963 23.0906 4.95278 23.0906H2.29663C1.81987 23.0906 1.43198 23.4785 1.43198 23.9553V37.5C1.43198 37.8954 1.1114 38.216 0.715991 38.216C0.320585 38.216 0 37.8954 0 37.5V23.9553C0 22.689 1.03022 21.6586 2.29663 21.6586H4.95287C6.03473 21.6586 6.94359 22.4108 7.18569 23.4195L12.7114 20.2421C13.7473 19.6465 14.9265 19.3317 16.1214 19.3317H22.6128C24.7412 19.3317 26.7603 20.9716 26.7603 23.6624C26.7603 25.4771 25.5983 27.0655 23.8687 27.6151L15.6908 30.2137C15.3153 30.3333 14.9116 30.126 14.7916 29.7482C14.6718 29.3713 14.8803 28.9687 15.2572 28.849L23.4351 26.2504C24.5675 25.8905 25.3282 24.8505 25.3282 23.6624V23.4791C25.3282 21.9818 24.11 20.7637 22.6127 20.7637H16.1214C15.1765 20.7637 14.2442 21.0126 13.4252 21.4836L7.24941 25.0346ZM37.0577 22.9155L30.1171 28.3517C29.7327 28.6527 29.2521 28.8186 28.7639 28.8186H24.7912C24.3958 28.8186 24.0752 29.1392 24.0752 29.5346C24.0752 29.93 24.3958 30.2505 24.7912 30.2505H28.7639C29.5707 30.2505 30.3649 29.9765 31.0001 29.4791L37.9407 24.0428C39.5163 22.8084 41.8092 24.1187 41.5466 26.1027C41.4663 26.7087 41.1519 27.2434 40.6612 27.608L28.7084 36.4922C27.834 37.1421 26.7525 37.5 25.663 37.5H9.93438C9.53897 37.5 9.21839 37.8206 9.21839 38.216C9.21839 38.6114 9.53897 38.932 9.93438 38.932H25.663C27.0581 38.932 28.443 38.4737 29.5627 37.6415L41.5154 28.7573C42.3194 28.1598 42.8346 27.2837 42.9661 26.2906C43.3959 23.0445 39.6444 20.8892 37.0577 22.9155ZM6.53342 19.8687C6.92883 19.8687 7.24941 19.5481 7.24941 19.1527V3.01969C7.24941 2.14422 7.96165 1.43198 8.83712 1.43198H16.9153V8.2902C16.9153 9.76272 18.4824 10.7011 19.78 10.0122L22.2214 8.71523C22.3734 8.63423 22.555 8.63441 22.7071 8.71532L25.1485 10.0122C26.4487 10.7027 28.0132 9.75932 28.0132 8.29011V3.66937C28.0132 3.27396 27.6926 2.95338 27.2972 2.95338C26.9018 2.95338 26.5812 3.27396 26.5812 3.66937V8.29011C26.5812 8.68166 26.1646 8.93038 25.8203 8.74754L23.3792 7.45061C22.8063 7.14622 22.1223 7.14613 21.5495 7.45052L19.1082 8.74745C18.7631 8.93092 18.3474 8.68068 18.3474 8.29011V1.43189H36.0019C36.8774 1.43189 37.5896 2.14413 37.5896 3.0196V19.1527C37.5896 19.5481 37.9102 19.8687 38.3056 19.8687C38.701 19.8687 39.0216 19.5481 39.0216 19.1527V3.01969C39.0216 1.35466 37.667 4.43448e-09 36.0019 4.43448e-09H8.83712C7.17209 -8.94945e-05 5.81743 1.35457 5.81743 3.01969V19.1528C5.81743 19.5481 6.13802 19.8687 6.53342 19.8687Z" fill="black"/>
</svg>
