<svg width="43" height="39" viewBox="0 0 43 39" fill="none" xmlns="http://www.w3.org/2000/svg">
<path d="M37.2656 26.5281L41.687 5.9373H7.83203L12.7587 26.5281H37.2656Z" fill="#FFCA19"/>
<path d="M41.687 5.9373H7.83203L8.58997 9.22171H40.6764L41.687 5.9373Z" fill="#E9AE21"/>
<path d="M37.2656 27.9177H12.7587C12.1271 27.9177 11.6218 27.5387 11.4955 26.9071L6.56885 6.18989C6.44251 5.81088 6.56885 5.43196 6.82152 5.17928C7.0742 4.92661 7.45312 4.67402 7.83213 4.67402H41.6871C42.0661 4.67402 42.445 4.80036 42.6977 5.17928C42.9504 5.43196 43.0767 5.93722 42.9504 6.31623L38.529 26.7808C38.4026 27.4124 37.8972 27.9177 37.2656 27.9177ZM13.7693 25.2649H36.255L40.0448 7.2005H9.47425L13.7693 25.2649Z" fill="black"/>
<path d="M7.8321 7.2005C7.2005 7.2005 6.69515 6.82149 6.56882 6.18989L5.5583 2.52648H1.26328C0.50526 2.52648 0 1.89488 0 1.26328C0 0.631683 0.631597 0 1.26328 0H6.5689C7.2005 0 7.70585 0.37901 7.83218 1.01061L9.09546 5.68463C9.2218 6.31623 8.84279 6.94791 8.21119 7.2005C8.08477 7.2005 7.95843 7.2005 7.8321 7.2005Z" fill="black"/>
<path d="M36.0023 34.3602H8.58993C6.06345 34.3602 4.04224 32.339 4.04224 29.8125C4.04224 27.286 6.06345 25.2648 8.58993 25.2648H36.0023C36.7602 25.2648 37.2656 25.8964 37.2656 26.5281C37.2656 27.1597 36.634 27.7914 36.0023 27.7914H8.58993C7.45298 27.7914 6.56871 28.6757 6.56871 29.8126C6.56871 30.9495 7.45298 31.8338 8.58993 31.8338H36.0023C36.7602 31.8338 37.2656 32.4654 37.2656 33.0971C37.3919 33.8549 36.7602 34.3602 36.0023 34.3602Z" fill="black"/>
<path d="M33.097 36.8868C35.1203 36.8868 36.7604 35.2466 36.7604 33.2233C36.7604 31.2001 35.1203 29.5599 33.097 29.5599C31.0738 29.5599 29.4336 31.2001 29.4336 33.2233C29.4336 35.2466 31.0738 36.8868 33.097 36.8868Z" fill="#C0D0D6"/>
<path d="M33.097 34.4866C33.7947 34.4866 34.3603 33.921 34.3603 33.2233C34.3603 32.5257 33.7947 31.9601 33.097 31.9601C32.3993 31.9601 31.8337 32.5257 31.8337 33.2233C31.8337 33.921 32.3993 34.4866 33.097 34.4866Z" fill="#849DA9"/>
<path d="M33.0971 38.15C30.318 38.15 28.0442 35.8762 28.0442 33.097C28.0442 30.3179 30.318 28.0441 33.0971 28.0441C35.8763 28.0441 38.1501 30.3179 38.1501 33.097C38.1501 35.8762 35.8762 38.15 33.0971 38.15ZM33.0971 30.8231C31.7076 30.8231 30.697 31.9601 30.697 33.2233C30.697 34.6128 31.8339 35.6234 33.0971 35.6234C34.3603 35.6234 35.4973 34.4865 35.4973 33.2233C35.4973 31.8337 34.3603 30.8231 33.0971 30.8231Z" fill="black"/>
<path d="M13.0116 36.8868C15.0348 36.8868 16.675 35.2466 16.675 33.2233C16.675 31.2001 15.0348 29.5599 13.0116 29.5599C10.9883 29.5599 9.34814 31.2001 9.34814 33.2233C9.34814 35.2466 10.9883 36.8868 13.0116 36.8868Z" fill="#C0D0D6"/>
<path d="M13.0116 34.4866C13.7093 34.4866 14.2749 33.921 14.2749 33.2233C14.2749 32.5257 13.7093 31.9601 13.0116 31.9601C12.3139 31.9601 11.7483 32.5257 11.7483 33.2233C11.7483 33.921 12.3139 34.4866 13.0116 34.4866Z" fill="#849DA9"/>
<path d="M13.0112 38.15C10.2321 38.15 7.95825 35.8762 7.95825 33.097C7.95825 30.3179 10.2321 28.0441 13.0112 28.0441C15.7903 28.0441 18.0642 30.3179 18.0642 33.097C18.0642 35.8762 15.7903 38.15 13.0112 38.15ZM13.0112 30.8231C11.6217 30.8231 10.6111 31.9601 10.6111 33.2233C10.6111 34.6128 11.748 35.6234 13.0112 35.6234C14.2744 35.6234 15.4113 34.4865 15.4113 33.2233C15.4114 31.8337 14.4008 30.8231 13.0112 30.8231Z" fill="black"/>
<path d="M18.9488 20.5909C18.1909 20.5909 17.6855 19.9593 17.6855 19.3276V11.8745C17.6855 11.1166 18.3171 10.6112 18.9488 10.6112C19.7068 10.6112 20.2121 11.2428 20.2121 11.8745V19.3277C20.212 20.0856 19.7068 20.5909 18.9488 20.5909Z" fill="black"/>
<path d="M24.7596 20.5909C24.0017 20.5909 23.4963 19.9593 23.4963 19.3276V11.8745C23.4963 11.1166 24.1279 10.6112 24.7596 10.6112C25.5176 10.6112 26.0229 11.2428 26.0229 11.8745V19.3277C26.0229 20.0856 25.5176 20.5909 24.7596 20.5909Z" fill="black"/>
<path d="M30.5704 20.5909C29.8125 20.5909 29.3071 19.9593 29.3071 19.3276V11.8745C29.3071 11.1166 29.9387 10.6112 30.5704 10.6112C31.3283 10.6112 31.8337 11.2428 31.8337 11.8745V19.3277C31.8337 20.0856 31.3284 20.5909 30.5704 20.5909Z" fill="black"/>
</svg>
